<svg xmlns="http://www.w3.org/2000/svg" xmlns:xlink="http://www.w3.org/1999/xlink" width="100" zoomAndPan="magnify" viewBox="0 0 75 44.999999" height="60" preserveAspectRatio="xMidYMid meet" version="1.0"><path fill="#233349" d="M 57.59375 8.980469 L 60 0 L 51.019531 2.40625 L 53.039062 4.425781 L 20.140625 37.324219 C 20.140625 37.324219 20.347656 37.5625 21.382812 38.617188 C 22.421875 39.675781 22.679688 39.863281 22.679688 39.863281 L 55.574219 6.960938 Z M 34.574219 16.027344 L 36.59375 18.046875 L 39 9.066406 L 30.019531 11.472656 L 32.035156 13.492188 L 18.902344 26.625 C 18.746094 25.789062 18.648438 24.941406 18.609375 24.089844 C 18.574219 23.238281 18.597656 22.386719 18.679688 21.539062 C 18.761719 20.691406 18.902344 19.851562 19.101562 19.023438 C 19.304688 18.191406 19.5625 17.382812 19.875 16.589844 C 20.191406 15.796875 20.5625 15.03125 20.984375 14.289062 C 21.40625 13.550781 21.878906 12.839844 22.402344 12.167969 C 22.925781 11.496094 23.496094 10.859375 24.105469 10.265625 C 24.71875 9.671875 25.371094 9.125 26.0625 8.625 C 26.75 8.121094 27.472656 7.671875 28.226562 7.273438 C 28.980469 6.871094 29.757812 6.527344 30.558594 6.238281 C 31.359375 5.945312 32.179688 5.714844 33.015625 5.539062 C 33.847656 5.367188 34.691406 5.25 35.542969 5.195312 C 36.394531 5.140625 37.246094 5.144531 38.097656 5.207031 C 38.945312 5.273438 39.789062 5.394531 40.621094 5.578125 C 41.453125 5.761719 42.269531 6.003906 43.070312 6.300781 C 43.867188 6.601562 44.644531 6.953125 45.390625 7.363281 L 48.015625 4.734375 C 47.011719 4.125 45.964844 3.601562 44.875 3.160156 C 43.785156 2.71875 42.667969 2.367188 41.523438 2.109375 C 40.375 1.851562 39.214844 1.683594 38.042969 1.613281 C 36.871094 1.542969 35.699219 1.566406 34.53125 1.683594 C 33.359375 1.804688 32.207031 2.015625 31.074219 2.324219 C 29.9375 2.628906 28.835938 3.023438 27.765625 3.507812 C 26.695312 3.992188 25.671875 4.5625 24.691406 5.210938 C 23.714844 5.863281 22.792969 6.589844 21.933594 7.390625 C 21.070312 8.1875 20.28125 9.054688 19.5625 9.980469 C 18.839844 10.910156 18.199219 11.890625 17.636719 12.925781 C 17.078125 13.957031 16.601562 15.027344 16.214844 16.136719 C 15.828125 17.246094 15.53125 18.378906 15.328125 19.539062 C 15.125 20.695312 15.015625 21.863281 15 23.035156 C 14.988281 24.210938 15.066406 25.382812 15.242188 26.542969 C 15.417969 27.707031 15.6875 28.84375 16.046875 29.964844 C 16.40625 31.082031 16.855469 32.164062 17.390625 33.210938 Z M 52.636719 14.617188 C 56.375 21.492188 55.34375 30.296875 49.535156 36.105469 C 48.492188 37.144531 47.339844 38.046875 46.078125 38.808594 C 44.816406 39.566406 43.480469 40.167969 42.070312 40.601562 C 40.664062 41.035156 39.226562 41.296875 37.753906 41.378906 C 36.28125 41.464844 34.824219 41.371094 33.375 41.097656 L 38.121094 36.351562 L 40.140625 38.371094 L 42.546875 29.390625 L 33.5625 31.796875 L 35.585938 33.816406 L 29.488281 39.910156 L 26.789062 42.609375 C 27.835938 43.144531 28.917969 43.59375 30.039062 43.953125 C 31.15625 44.316406 32.296875 44.582031 33.457031 44.757812 C 34.621094 44.933594 35.789062 45.015625 36.964844 45 C 38.140625 44.984375 39.304688 44.875 40.464844 44.671875 C 41.621094 44.46875 42.753906 44.175781 43.863281 43.785156 C 44.972656 43.398438 46.046875 42.925781 47.078125 42.363281 C 48.109375 41.800781 49.089844 41.160156 50.019531 40.441406 C 50.949219 39.722656 51.8125 38.929688 52.613281 38.070312 C 53.414062 37.207031 54.136719 36.289062 54.789062 35.3125 C 55.441406 34.332031 56.007812 33.308594 56.492188 32.238281 C 56.976562 31.167969 57.375 30.0625 57.679688 28.929688 C 57.984375 27.792969 58.199219 26.640625 58.316406 25.472656 C 58.4375 24.304688 58.460938 23.132812 58.386719 21.960938 C 58.316406 20.785156 58.152344 19.625 57.894531 18.480469 C 57.632812 17.335938 57.285156 16.214844 56.84375 15.125 C 56.402344 14.035156 55.875 12.988281 55.265625 11.984375 Z M 52.636719 14.617188 " fill-opacity="1" fill-rule="nonzero"/></svg>