<svg xmlns="http://www.w3.org/2000/svg" xmlns:xlink="http://www.w3.org/1999/xlink" width="40" zoomAndPan="magnify" viewBox="0 0 30 30.000001" height="40" preserveAspectRatio="xMidYMid meet" version="1.0"><defs><g/><clipPath id="b0326473c2"><path d="M 0.484375 0 L 29.515625 0 L 29.515625 29.03125 L 0.484375 29.03125 Z M 0.484375 0 " clip-rule="nonzero"/></clipPath><clipPath id="0439d751ac"><path d="M 19 9 L 29.515625 9 L 29.515625 22.644531 L 19 22.644531 Z M 19 9 " clip-rule="nonzero"/></clipPath><clipPath id="d8ac4bfb85"><path d="M 0.484375 1.597656 L 25 1.597656 L 25 22.644531 L 0.484375 22.644531 Z M 0.484375 1.597656 " clip-rule="nonzero"/></clipPath></defs><g clip-path="url(#b0326473c2)"><path fill="#ffffff" d="M 0.484375 0 L 29.515625 0 L 29.515625 29.03125 L 0.484375 29.03125 Z M 0.484375 0 " fill-opacity="1" fill-rule="nonzero"/><path fill="#ffffff" d="M 0.484375 0 L 29.515625 0 L 29.515625 29.03125 L 0.484375 29.03125 Z M 0.484375 0 " fill-opacity="1" fill-rule="nonzero"/></g><g clip-path="url(#0439d751ac)"><path fill="#233349" d="M 28.019531 20.4375 L 20.46875 20.4375 L 20.46875 11.183594 L 28.019531 11.183594 Z M 28.359375 9.296875 L 20.132812 9.296875 C 19.511719 9.296875 19.003906 9.800781 19.003906 10.421875 L 19.003906 21.355469 C 19.003906 21.976562 19.511719 22.480469 20.132812 22.480469 L 28.359375 22.480469 C 28.980469 22.480469 29.484375 21.976562 29.484375 21.355469 L 29.484375 10.421875 C 29.484375 9.800781 28.980469 9.296875 28.359375 9.296875 " fill-opacity="1" fill-rule="nonzero"/></g><g clip-path="url(#d8ac4bfb85)"><path fill="#233349" d="M 2.546875 3.644531 L 22.128906 3.644531 L 22.128906 8.535156 L 24.183594 8.535156 L 24.183594 3.394531 C 24.183594 2.914062 23.996094 2.460938 23.652344 2.121094 C 23.3125 1.777344 22.859375 1.589844 22.382812 1.589844 L 2.292969 1.589844 C 1.816406 1.589844 1.363281 1.777344 1.023438 2.121094 C 0.679688 2.460938 0.492188 2.914062 0.492188 3.394531 L 0.492188 17.035156 C 0.492188 17.515625 0.679688 17.96875 1.023438 18.308594 C 1.363281 18.652344 1.816406 18.839844 2.292969 18.839844 L 10.152344 18.839844 L 8.914062 21.234375 L 7.546875 21.234375 C 7.308594 21.234375 7.101562 21.4375 7.101562 21.675781 L 7.101562 22.039062 C 7.101562 22.28125 7.304688 22.480469 7.546875 22.480469 C 9.863281 22.480469 9.789062 22.480469 10.789062 22.480469 L 11.304688 22.480469 C 11.304688 22.480469 11.820312 22.480469 13.371094 22.480469 L 13.886719 22.480469 C 14.886719 22.480469 14.8125 22.480469 17.132812 22.480469 C 17.371094 22.480469 17.574219 22.277344 17.574219 22.039062 L 17.574219 21.675781 C 17.574219 21.4375 17.367188 21.234375 17.132812 21.234375 L 15.761719 21.234375 L 14.523438 18.839844 L 18.242188 18.839844 L 18.242188 16.785156 L 2.546875 16.785156 L 2.546875 3.644531 " fill-opacity="1" fill-rule="nonzero"/></g><g fill="#233349" fill-opacity="1"><g transform="translate(2.771154, 26.774197)"><g><path d="M 0.265625 -1.359375 C 0.285156 -1.359375 0.304688 -1.351562 0.328125 -1.34375 C 0.347656 -1.332031 0.363281 -1.320312 0.375 -1.3125 L 0.84375 -0.578125 L 0.75 -0.578125 L 1.21875 -1.3125 C 1.25 -1.34375 1.285156 -1.359375 1.328125 -1.359375 C 1.359375 -1.359375 1.382812 -1.347656 1.40625 -1.328125 C 1.425781 -1.304688 1.4375 -1.273438 1.4375 -1.234375 L 1.4375 -0.125 C 1.4375 -0.0820312 1.425781 -0.0507812 1.40625 -0.03125 C 1.382812 -0.0078125 1.359375 0 1.328125 0 C 1.285156 0 1.253906 -0.0078125 1.234375 -0.03125 C 1.210938 -0.0507812 1.203125 -0.0820312 1.203125 -0.125 L 1.203125 -1.03125 L 1.28125 -1.015625 L 0.875 -0.40625 C 0.863281 -0.394531 0.847656 -0.382812 0.828125 -0.375 C 0.816406 -0.363281 0.800781 -0.359375 0.78125 -0.359375 C 0.757812 -0.359375 0.738281 -0.363281 0.71875 -0.375 C 0.707031 -0.382812 0.695312 -0.394531 0.6875 -0.40625 L 0.3125 -1 L 0.375 -1.09375 L 0.375 -0.125 C 0.375 -0.0820312 0.363281 -0.0507812 0.34375 -0.03125 C 0.320312 -0.0078125 0.289062 0 0.25 0 C 0.21875 0 0.191406 -0.0078125 0.171875 -0.03125 C 0.148438 -0.0507812 0.140625 -0.0820312 0.140625 -0.125 L 0.140625 -1.234375 C 0.140625 -1.265625 0.148438 -1.289062 0.171875 -1.3125 C 0.203125 -1.34375 0.234375 -1.359375 0.265625 -1.359375 Z M 0.265625 -1.359375 "/></g></g></g><g fill="#233349" fill-opacity="1"><g transform="translate(4.356327, 26.774197)"><g><path d="M 1.125 -0.515625 C 1.125 -0.410156 1.097656 -0.316406 1.046875 -0.234375 C 1.003906 -0.148438 0.941406 -0.0859375 0.859375 -0.046875 C 0.785156 -0.00390625 0.703125 0.015625 0.609375 0.015625 C 0.503906 0.015625 0.410156 -0.00390625 0.328125 -0.046875 C 0.253906 -0.0859375 0.191406 -0.148438 0.140625 -0.234375 C 0.0976562 -0.316406 0.078125 -0.410156 0.078125 -0.515625 C 0.078125 -0.617188 0.0976562 -0.710938 0.140625 -0.796875 C 0.191406 -0.878906 0.253906 -0.941406 0.328125 -0.984375 C 0.410156 -1.035156 0.503906 -1.0625 0.609375 -1.0625 C 0.703125 -1.0625 0.785156 -1.035156 0.859375 -0.984375 C 0.941406 -0.941406 1.003906 -0.878906 1.046875 -0.796875 C 1.097656 -0.710938 1.125 -0.617188 1.125 -0.515625 Z M 0.90625 -0.515625 C 0.90625 -0.578125 0.890625 -0.632812 0.859375 -0.6875 C 0.828125 -0.738281 0.789062 -0.773438 0.75 -0.796875 C 0.707031 -0.828125 0.660156 -0.84375 0.609375 -0.84375 C 0.546875 -0.84375 0.492188 -0.828125 0.453125 -0.796875 C 0.410156 -0.773438 0.375 -0.738281 0.34375 -0.6875 C 0.320312 -0.632812 0.3125 -0.578125 0.3125 -0.515625 C 0.3125 -0.453125 0.320312 -0.394531 0.34375 -0.34375 C 0.375 -0.300781 0.410156 -0.265625 0.453125 -0.234375 C 0.492188 -0.203125 0.546875 -0.1875 0.609375 -0.1875 C 0.660156 -0.1875 0.707031 -0.203125 0.75 -0.234375 C 0.789062 -0.265625 0.828125 -0.300781 0.859375 -0.34375 C 0.890625 -0.394531 0.90625 -0.453125 0.90625 -0.515625 Z M 0.90625 -0.515625 "/></g></g></g><g fill="#233349" fill-opacity="1"><g transform="translate(5.564079, 26.774197)"><g><path d="M 0.65625 -1.0625 C 0.75 -1.0625 0.832031 -1.035156 0.90625 -0.984375 C 0.976562 -0.941406 1.035156 -0.878906 1.078125 -0.796875 C 1.117188 -0.710938 1.140625 -0.617188 1.140625 -0.515625 C 1.140625 -0.410156 1.117188 -0.316406 1.078125 -0.234375 C 1.035156 -0.160156 0.976562 -0.0976562 0.90625 -0.046875 C 0.832031 -0.00390625 0.753906 0.015625 0.671875 0.015625 C 0.617188 0.015625 0.566406 0.0078125 0.515625 0 C 0.472656 -0.0195312 0.4375 -0.0390625 0.40625 -0.0625 C 0.375 -0.09375 0.347656 -0.117188 0.328125 -0.140625 C 0.304688 -0.171875 0.296875 -0.195312 0.296875 -0.21875 L 0.359375 -0.234375 L 0.359375 -0.09375 C 0.359375 -0.0625 0.347656 -0.0351562 0.328125 -0.015625 C 0.304688 0.00390625 0.273438 0.015625 0.234375 0.015625 C 0.203125 0.015625 0.175781 0.00390625 0.15625 -0.015625 C 0.132812 -0.0351562 0.125 -0.0625 0.125 -0.09375 L 0.125 -1.3125 C 0.125 -1.34375 0.132812 -1.367188 0.15625 -1.390625 C 0.175781 -1.421875 0.203125 -1.4375 0.234375 -1.4375 C 0.273438 -1.4375 0.304688 -1.421875 0.328125 -1.390625 C 0.347656 -1.367188 0.359375 -1.34375 0.359375 -1.3125 L 0.359375 -0.828125 L 0.328125 -0.84375 C 0.328125 -0.851562 0.332031 -0.867188 0.34375 -0.890625 C 0.363281 -0.921875 0.390625 -0.945312 0.421875 -0.96875 C 0.453125 -1 0.488281 -1.019531 0.53125 -1.03125 C 0.570312 -1.050781 0.613281 -1.0625 0.65625 -1.0625 Z M 0.640625 -0.84375 C 0.578125 -0.84375 0.523438 -0.828125 0.484375 -0.796875 C 0.441406 -0.765625 0.40625 -0.722656 0.375 -0.671875 C 0.351562 -0.628906 0.34375 -0.578125 0.34375 -0.515625 C 0.34375 -0.453125 0.351562 -0.394531 0.375 -0.34375 C 0.40625 -0.300781 0.441406 -0.265625 0.484375 -0.234375 C 0.523438 -0.203125 0.578125 -0.1875 0.640625 -0.1875 C 0.691406 -0.1875 0.738281 -0.203125 0.78125 -0.234375 C 0.820312 -0.265625 0.851562 -0.300781 0.875 -0.34375 C 0.90625 -0.394531 0.921875 -0.453125 0.921875 -0.515625 C 0.921875 -0.578125 0.90625 -0.628906 0.875 -0.671875 C 0.851562 -0.722656 0.820312 -0.765625 0.78125 -0.796875 C 0.738281 -0.828125 0.691406 -0.84375 0.640625 -0.84375 Z M 0.640625 -0.84375 "/></g></g></g><g fill="#233349" fill-opacity="1"><g transform="translate(6.779574, 26.774197)"><g><path d="M 0.34375 -0.125 C 0.34375 -0.0820312 0.332031 -0.0507812 0.3125 -0.03125 C 0.289062 -0.0078125 0.265625 0 0.234375 0 C 0.191406 0 0.160156 -0.0078125 0.140625 -0.03125 C 0.117188 -0.0507812 0.109375 -0.0820312 0.109375 -0.125 L 0.109375 -0.921875 C 0.109375 -0.953125 0.117188 -0.976562 0.140625 -1 C 0.160156 -1.019531 0.191406 -1.03125 0.234375 -1.03125 C 0.265625 -1.03125 0.289062 -1.019531 0.3125 -1 C 0.332031 -0.976562 0.34375 -0.953125 0.34375 -0.921875 Z M 0.234375 -1.15625 C 0.191406 -1.15625 0.160156 -1.160156 0.140625 -1.171875 C 0.117188 -1.191406 0.109375 -1.222656 0.109375 -1.265625 L 0.109375 -1.296875 C 0.109375 -1.335938 0.117188 -1.363281 0.140625 -1.375 C 0.160156 -1.382812 0.191406 -1.390625 0.234375 -1.390625 C 0.273438 -1.390625 0.304688 -1.378906 0.328125 -1.359375 C 0.347656 -1.347656 0.359375 -1.328125 0.359375 -1.296875 L 0.359375 -1.265625 C 0.359375 -1.222656 0.347656 -1.191406 0.328125 -1.171875 C 0.304688 -1.160156 0.273438 -1.15625 0.234375 -1.15625 Z M 0.234375 -1.15625 "/></g></g></g><g fill="#233349" fill-opacity="1"><g transform="translate(7.236351, 26.774197)"><g><path d="M 0.375 -0.125 C 0.375 -0.0820312 0.363281 -0.0507812 0.34375 -0.03125 C 0.320312 -0.0078125 0.296875 0 0.265625 0 C 0.234375 0 0.203125 -0.0078125 0.171875 -0.03125 C 0.148438 -0.0507812 0.140625 -0.0820312 0.140625 -0.125 L 0.140625 -1.3125 C 0.140625 -1.34375 0.148438 -1.367188 0.171875 -1.390625 C 0.203125 -1.421875 0.234375 -1.4375 0.265625 -1.4375 C 0.296875 -1.4375 0.320312 -1.421875 0.34375 -1.390625 C 0.363281 -1.367188 0.375 -1.34375 0.375 -1.3125 Z M 0.375 -0.125 "/></g></g></g><g fill="#233349" fill-opacity="1"><g transform="translate(7.758936, 26.774197)"><g><path d="M 0.609375 0.015625 C 0.503906 0.015625 0.410156 -0.00390625 0.328125 -0.046875 C 0.242188 -0.0976562 0.179688 -0.160156 0.140625 -0.234375 C 0.0976562 -0.316406 0.078125 -0.40625 0.078125 -0.5 C 0.078125 -0.613281 0.0976562 -0.710938 0.140625 -0.796875 C 0.191406 -0.878906 0.253906 -0.941406 0.328125 -0.984375 C 0.410156 -1.035156 0.492188 -1.0625 0.578125 -1.0625 C 0.640625 -1.0625 0.695312 -1.046875 0.75 -1.015625 C 0.8125 -0.984375 0.863281 -0.941406 0.90625 -0.890625 C 0.957031 -0.847656 0.992188 -0.796875 1.015625 -0.734375 C 1.046875 -0.671875 1.0625 -0.609375 1.0625 -0.546875 C 1.0625 -0.515625 1.050781 -0.488281 1.03125 -0.46875 C 1.007812 -0.445312 0.984375 -0.4375 0.953125 -0.4375 L 0.203125 -0.4375 L 0.15625 -0.625 L 0.859375 -0.625 L 0.8125 -0.59375 L 0.8125 -0.640625 C 0.8125 -0.679688 0.796875 -0.71875 0.765625 -0.75 C 0.742188 -0.78125 0.71875 -0.800781 0.6875 -0.8125 C 0.65625 -0.832031 0.617188 -0.84375 0.578125 -0.84375 C 0.535156 -0.84375 0.5 -0.835938 0.46875 -0.828125 C 0.4375 -0.816406 0.40625 -0.796875 0.375 -0.765625 C 0.351562 -0.742188 0.332031 -0.710938 0.3125 -0.671875 C 0.300781 -0.628906 0.296875 -0.578125 0.296875 -0.515625 C 0.296875 -0.453125 0.3125 -0.394531 0.34375 -0.34375 C 0.375 -0.289062 0.410156 -0.25 0.453125 -0.21875 C 0.503906 -0.195312 0.554688 -0.1875 0.609375 -0.1875 C 0.648438 -0.1875 0.6875 -0.191406 0.71875 -0.203125 C 0.75 -0.210938 0.769531 -0.222656 0.78125 -0.234375 C 0.800781 -0.242188 0.816406 -0.253906 0.828125 -0.265625 C 0.859375 -0.273438 0.882812 -0.28125 0.90625 -0.28125 C 0.925781 -0.28125 0.945312 -0.269531 0.96875 -0.25 C 0.988281 -0.226562 1 -0.207031 1 -0.1875 C 1 -0.144531 0.976562 -0.113281 0.9375 -0.09375 C 0.90625 -0.0625 0.859375 -0.0351562 0.796875 -0.015625 C 0.742188 0.00390625 0.679688 0.015625 0.609375 0.015625 Z M 0.609375 0.015625 "/></g></g></g><g fill="#233349" fill-opacity="1"><g transform="translate(8.90088, 26.774197)"><g/></g></g><g fill="#233349" fill-opacity="1"><g transform="translate(9.442821, 26.774197)"><g><path d="M 0.546875 0.015625 C 0.453125 0.015625 0.367188 0 0.296875 -0.03125 C 0.222656 -0.0703125 0.164062 -0.125 0.125 -0.1875 C 0.0820312 -0.257812 0.0625 -0.332031 0.0625 -0.40625 C 0.0625 -0.46875 0.0703125 -0.523438 0.09375 -0.578125 C 0.113281 -0.628906 0.144531 -0.675781 0.1875 -0.71875 C 0.238281 -0.757812 0.300781 -0.796875 0.375 -0.828125 L 0.515625 -0.671875 C 0.429688 -0.648438 0.375 -0.617188 0.34375 -0.578125 C 0.3125 -0.546875 0.296875 -0.5 0.296875 -0.4375 C 0.296875 -0.394531 0.304688 -0.351562 0.328125 -0.3125 C 0.347656 -0.28125 0.378906 -0.253906 0.421875 -0.234375 C 0.460938 -0.210938 0.519531 -0.203125 0.59375 -0.203125 C 0.65625 -0.203125 0.707031 -0.210938 0.75 -0.234375 C 0.800781 -0.265625 0.84375 -0.300781 0.875 -0.34375 C 0.914062 -0.394531 0.945312 -0.445312 0.96875 -0.5 C 0.988281 -0.5625 1.003906 -0.617188 1.015625 -0.671875 C 1.015625 -0.691406 1.019531 -0.707031 1.03125 -0.71875 C 1.050781 -0.726562 1.078125 -0.734375 1.109375 -0.734375 C 1.140625 -0.734375 1.164062 -0.71875 1.1875 -0.6875 C 1.207031 -0.664062 1.210938 -0.640625 1.203125 -0.609375 C 1.191406 -0.523438 1.171875 -0.445312 1.140625 -0.375 C 1.109375 -0.300781 1.066406 -0.234375 1.015625 -0.171875 C 0.960938 -0.117188 0.894531 -0.0703125 0.8125 -0.03125 C 0.738281 0 0.648438 0.015625 0.546875 0.015625 Z M 1.234375 0 C 1.210938 0 1.195312 0 1.1875 0 C 1.175781 0 1.171875 -0.00390625 1.171875 -0.015625 C 1.078125 -0.0976562 0.988281 -0.171875 0.90625 -0.234375 C 0.832031 -0.304688 0.757812 -0.375 0.6875 -0.4375 C 0.625 -0.5 0.566406 -0.5625 0.515625 -0.625 C 0.472656 -0.675781 0.429688 -0.722656 0.390625 -0.765625 C 0.347656 -0.804688 0.316406 -0.84375 0.296875 -0.875 C 0.273438 -0.914062 0.265625 -0.960938 0.265625 -1.015625 C 0.265625 -1.078125 0.28125 -1.132812 0.3125 -1.1875 C 0.351562 -1.238281 0.40625 -1.28125 0.46875 -1.3125 C 0.53125 -1.351562 0.601562 -1.375 0.6875 -1.375 C 0.78125 -1.375 0.859375 -1.359375 0.921875 -1.328125 C 0.992188 -1.296875 1.046875 -1.257812 1.078125 -1.21875 C 1.078125 -1.207031 1.078125 -1.195312 1.078125 -1.1875 C 1.085938 -1.175781 1.09375 -1.160156 1.09375 -1.140625 C 1.09375 -1.109375 1.082031 -1.082031 1.0625 -1.0625 C 1.039062 -1.050781 1.015625 -1.046875 0.984375 -1.046875 C 0.972656 -1.046875 0.957031 -1.046875 0.9375 -1.046875 C 0.925781 -1.054688 0.921875 -1.066406 0.921875 -1.078125 C 0.890625 -1.117188 0.851562 -1.144531 0.8125 -1.15625 C 0.78125 -1.175781 0.738281 -1.1875 0.6875 -1.1875 C 0.632812 -1.1875 0.59375 -1.171875 0.5625 -1.140625 C 0.53125 -1.109375 0.515625 -1.070312 0.515625 -1.03125 C 0.515625 -0.988281 0.523438 -0.945312 0.546875 -0.90625 C 0.578125 -0.863281 0.609375 -0.820312 0.640625 -0.78125 C 0.679688 -0.75 0.71875 -0.722656 0.75 -0.703125 C 0.78125 -0.660156 0.820312 -0.613281 0.875 -0.5625 C 0.925781 -0.507812 0.976562 -0.460938 1.03125 -0.421875 C 1.082031 -0.378906 1.128906 -0.335938 1.171875 -0.296875 C 1.210938 -0.253906 1.25 -0.222656 1.28125 -0.203125 C 1.289062 -0.179688 1.300781 -0.160156 1.3125 -0.140625 C 1.320312 -0.128906 1.328125 -0.113281 1.328125 -0.09375 C 1.328125 -0.0703125 1.316406 -0.0507812 1.296875 -0.03125 C 1.285156 -0.0078125 1.265625 0 1.234375 0 Z M 1.234375 0 "/></g></g></g><g fill="#233349" fill-opacity="1"><g transform="translate(10.81509, 26.774197)"><g/></g></g><g fill="#233349" fill-opacity="1"><g transform="translate(11.357032, 26.774197)"><g><path d="M 0.71875 -1.359375 C 0.8125 -1.359375 0.894531 -1.335938 0.96875 -1.296875 C 1.039062 -1.265625 1.101562 -1.21875 1.15625 -1.15625 C 1.207031 -1.09375 1.242188 -1.019531 1.265625 -0.9375 C 1.296875 -0.851562 1.3125 -0.765625 1.3125 -0.671875 C 1.3125 -0.546875 1.285156 -0.429688 1.234375 -0.328125 C 1.191406 -0.234375 1.128906 -0.15625 1.046875 -0.09375 C 0.960938 -0.03125 0.851562 0 0.71875 0 L 0.265625 0 C 0.234375 0 0.203125 -0.0078125 0.171875 -0.03125 C 0.148438 -0.0507812 0.140625 -0.0820312 0.140625 -0.125 L 0.140625 -1.234375 C 0.140625 -1.265625 0.148438 -1.289062 0.171875 -1.3125 C 0.203125 -1.34375 0.234375 -1.359375 0.265625 -1.359375 Z M 0.703125 -0.21875 C 0.785156 -0.21875 0.851562 -0.238281 0.90625 -0.28125 C 0.957031 -0.320312 0.992188 -0.378906 1.015625 -0.453125 C 1.046875 -0.523438 1.0625 -0.597656 1.0625 -0.671875 C 1.0625 -0.734375 1.050781 -0.789062 1.03125 -0.84375 C 1.019531 -0.90625 1 -0.957031 0.96875 -1 C 0.945312 -1.039062 0.910156 -1.070312 0.859375 -1.09375 C 0.816406 -1.125 0.765625 -1.140625 0.703125 -1.140625 L 0.375 -1.140625 L 0.390625 -1.15625 L 0.390625 -0.203125 L 0.375 -0.21875 Z M 0.703125 -0.21875 "/></g></g></g><g fill="#233349" fill-opacity="1"><g transform="translate(12.740914, 26.774197)"><g><path d="M 0.609375 0.015625 C 0.503906 0.015625 0.410156 -0.00390625 0.328125 -0.046875 C 0.242188 -0.0976562 0.179688 -0.160156 0.140625 -0.234375 C 0.0976562 -0.316406 0.078125 -0.40625 0.078125 -0.5 C 0.078125 -0.613281 0.0976562 -0.710938 0.140625 -0.796875 C 0.191406 -0.878906 0.253906 -0.941406 0.328125 -0.984375 C 0.410156 -1.035156 0.492188 -1.0625 0.578125 -1.0625 C 0.640625 -1.0625 0.695312 -1.046875 0.75 -1.015625 C 0.8125 -0.984375 0.863281 -0.941406 0.90625 -0.890625 C 0.957031 -0.847656 0.992188 -0.796875 1.015625 -0.734375 C 1.046875 -0.671875 1.0625 -0.609375 1.0625 -0.546875 C 1.0625 -0.515625 1.050781 -0.488281 1.03125 -0.46875 C 1.007812 -0.445312 0.984375 -0.4375 0.953125 -0.4375 L 0.203125 -0.4375 L 0.15625 -0.625 L 0.859375 -0.625 L 0.8125 -0.59375 L 0.8125 -0.640625 C 0.8125 -0.679688 0.796875 -0.71875 0.765625 -0.75 C 0.742188 -0.78125 0.71875 -0.800781 0.6875 -0.8125 C 0.65625 -0.832031 0.617188 -0.84375 0.578125 -0.84375 C 0.535156 -0.84375 0.5 -0.835938 0.46875 -0.828125 C 0.4375 -0.816406 0.40625 -0.796875 0.375 -0.765625 C 0.351562 -0.742188 0.332031 -0.710938 0.3125 -0.671875 C 0.300781 -0.628906 0.296875 -0.578125 0.296875 -0.515625 C 0.296875 -0.453125 0.3125 -0.394531 0.34375 -0.34375 C 0.375 -0.289062 0.410156 -0.25 0.453125 -0.21875 C 0.503906 -0.195312 0.554688 -0.1875 0.609375 -0.1875 C 0.648438 -0.1875 0.6875 -0.191406 0.71875 -0.203125 C 0.75 -0.210938 0.769531 -0.222656 0.78125 -0.234375 C 0.800781 -0.242188 0.816406 -0.253906 0.828125 -0.265625 C 0.859375 -0.273438 0.882812 -0.28125 0.90625 -0.28125 C 0.925781 -0.28125 0.945312 -0.269531 0.96875 -0.25 C 0.988281 -0.226562 1 -0.207031 1 -0.1875 C 1 -0.144531 0.976562 -0.113281 0.9375 -0.09375 C 0.90625 -0.0625 0.859375 -0.0351562 0.796875 -0.015625 C 0.742188 0.00390625 0.679688 0.015625 0.609375 0.015625 Z M 0.609375 0.015625 "/></g></g></g><g fill="#233349" fill-opacity="1"><g transform="translate(13.882859, 26.774197)"><g><path d="M 0.0625 -0.15625 C 0.0507812 -0.175781 0.046875 -0.195312 0.046875 -0.21875 C 0.046875 -0.25 0.0625 -0.273438 0.09375 -0.296875 C 0.113281 -0.316406 0.132812 -0.320312 0.15625 -0.3125 C 0.1875 -0.3125 0.210938 -0.300781 0.234375 -0.28125 C 0.265625 -0.25 0.300781 -0.222656 0.34375 -0.203125 C 0.382812 -0.179688 0.4375 -0.171875 0.5 -0.171875 C 0.519531 -0.171875 0.539062 -0.171875 0.5625 -0.171875 C 0.59375 -0.179688 0.613281 -0.191406 0.625 -0.203125 C 0.644531 -0.222656 0.65625 -0.25 0.65625 -0.28125 C 0.65625 -0.3125 0.644531 -0.332031 0.625 -0.34375 C 0.601562 -0.363281 0.578125 -0.378906 0.546875 -0.390625 C 0.515625 -0.398438 0.484375 -0.410156 0.453125 -0.421875 C 0.410156 -0.429688 0.367188 -0.441406 0.328125 -0.453125 C 0.285156 -0.472656 0.242188 -0.492188 0.203125 -0.515625 C 0.171875 -0.535156 0.144531 -0.566406 0.125 -0.609375 C 0.101562 -0.648438 0.09375 -0.695312 0.09375 -0.75 C 0.09375 -0.8125 0.109375 -0.863281 0.140625 -0.90625 C 0.179688 -0.957031 0.226562 -0.992188 0.28125 -1.015625 C 0.34375 -1.046875 0.40625 -1.0625 0.46875 -1.0625 C 0.507812 -1.0625 0.550781 -1.054688 0.59375 -1.046875 C 0.632812 -1.035156 0.675781 -1.019531 0.71875 -1 C 0.757812 -0.976562 0.789062 -0.945312 0.8125 -0.90625 C 0.832031 -0.882812 0.84375 -0.859375 0.84375 -0.828125 C 0.84375 -0.804688 0.832031 -0.785156 0.8125 -0.765625 C 0.789062 -0.753906 0.765625 -0.75 0.734375 -0.75 C 0.710938 -0.75 0.691406 -0.753906 0.671875 -0.765625 C 0.648438 -0.796875 0.617188 -0.816406 0.578125 -0.828125 C 0.546875 -0.847656 0.503906 -0.859375 0.453125 -0.859375 C 0.441406 -0.859375 0.421875 -0.859375 0.390625 -0.859375 C 0.367188 -0.859375 0.347656 -0.847656 0.328125 -0.828125 C 0.316406 -0.816406 0.3125 -0.796875 0.3125 -0.765625 C 0.3125 -0.734375 0.320312 -0.707031 0.34375 -0.6875 C 0.363281 -0.664062 0.390625 -0.648438 0.421875 -0.640625 C 0.453125 -0.628906 0.488281 -0.617188 0.53125 -0.609375 C 0.5625 -0.597656 0.597656 -0.585938 0.640625 -0.578125 C 0.679688 -0.566406 0.71875 -0.546875 0.75 -0.515625 C 0.78125 -0.492188 0.804688 -0.460938 0.828125 -0.421875 C 0.847656 -0.390625 0.859375 -0.347656 0.859375 -0.296875 C 0.859375 -0.222656 0.835938 -0.160156 0.796875 -0.109375 C 0.765625 -0.0664062 0.71875 -0.0351562 0.65625 -0.015625 C 0.601562 0.00390625 0.546875 0.015625 0.484375 0.015625 C 0.410156 0.015625 0.332031 0.00390625 0.25 -0.015625 C 0.175781 -0.046875 0.113281 -0.09375 0.0625 -0.15625 Z M 0.0625 -0.15625 "/></g></g></g><g fill="#233349" fill-opacity="1"><g transform="translate(14.81577, 26.774197)"><g><path d="M 0.265625 0 C 0.234375 0 0.203125 -0.0078125 0.171875 -0.03125 C 0.148438 -0.0507812 0.140625 -0.0820312 0.140625 -0.125 L 0.140625 -1.3125 C 0.140625 -1.34375 0.148438 -1.367188 0.171875 -1.390625 C 0.203125 -1.421875 0.234375 -1.4375 0.265625 -1.4375 C 0.296875 -1.4375 0.320312 -1.421875 0.34375 -1.390625 C 0.363281 -1.367188 0.375 -1.34375 0.375 -1.3125 L 0.375 -0.125 C 0.375 -0.0820312 0.363281 -0.0507812 0.34375 -0.03125 C 0.320312 -0.0078125 0.296875 0 0.265625 0 Z M 0.875 -1.03125 C 0.90625 -1.03125 0.929688 -1.019531 0.953125 -1 C 0.972656 -0.976562 0.984375 -0.953125 0.984375 -0.921875 C 0.984375 -0.890625 0.96875 -0.863281 0.9375 -0.84375 L 0.359375 -0.296875 L 0.34375 -0.578125 L 0.796875 -1 C 0.816406 -1.019531 0.84375 -1.03125 0.875 -1.03125 Z M 0.90625 0 C 0.875 0 0.847656 -0.015625 0.828125 -0.046875 L 0.46875 -0.421875 L 0.640625 -0.578125 L 0.984375 -0.203125 C 1.015625 -0.179688 1.03125 -0.148438 1.03125 -0.109375 C 1.03125 -0.078125 1.015625 -0.0507812 0.984375 -0.03125 C 0.960938 -0.0078125 0.9375 0 0.90625 0 Z M 0.90625 0 "/></g></g></g><g fill="#233349" fill-opacity="1"><g transform="translate(15.91707, 26.774197)"><g><path d="M 0.140625 -1.015625 L 0.59375 -1.015625 C 0.625 -1.015625 0.648438 -1.003906 0.671875 -0.984375 C 0.691406 -0.960938 0.703125 -0.9375 0.703125 -0.90625 C 0.703125 -0.875 0.691406 -0.847656 0.671875 -0.828125 C 0.648438 -0.804688 0.625 -0.796875 0.59375 -0.796875 L 0.140625 -0.796875 C 0.109375 -0.796875 0.0820312 -0.804688 0.0625 -0.828125 C 0.0390625 -0.847656 0.03125 -0.875 0.03125 -0.90625 C 0.03125 -0.9375 0.0390625 -0.960938 0.0625 -0.984375 C 0.0820312 -1.003906 0.109375 -1.015625 0.140625 -1.015625 Z M 0.34375 -1.265625 C 0.375 -1.265625 0.398438 -1.25 0.421875 -1.21875 C 0.441406 -1.195312 0.453125 -1.171875 0.453125 -1.140625 L 0.453125 -0.28125 C 0.453125 -0.257812 0.457031 -0.242188 0.46875 -0.234375 C 0.476562 -0.222656 0.488281 -0.210938 0.5 -0.203125 C 0.507812 -0.203125 0.519531 -0.203125 0.53125 -0.203125 C 0.550781 -0.203125 0.566406 -0.203125 0.578125 -0.203125 C 0.585938 -0.210938 0.601562 -0.21875 0.625 -0.21875 C 0.644531 -0.21875 0.660156 -0.207031 0.671875 -0.1875 C 0.691406 -0.175781 0.703125 -0.15625 0.703125 -0.125 C 0.703125 -0.0820312 0.679688 -0.0507812 0.640625 -0.03125 C 0.597656 -0.0078125 0.554688 0 0.515625 0 C 0.484375 0 0.453125 0 0.421875 0 C 0.390625 -0.0078125 0.359375 -0.0195312 0.328125 -0.03125 C 0.296875 -0.0507812 0.269531 -0.078125 0.25 -0.109375 C 0.238281 -0.148438 0.234375 -0.203125 0.234375 -0.265625 L 0.234375 -1.140625 C 0.234375 -1.171875 0.242188 -1.195312 0.265625 -1.21875 C 0.285156 -1.25 0.3125 -1.265625 0.34375 -1.265625 Z M 0.34375 -1.265625 "/></g></g></g><g fill="#233349" fill-opacity="1"><g transform="translate(16.708689, 26.774197)"><g><path d="M 1.125 -0.515625 C 1.125 -0.410156 1.097656 -0.316406 1.046875 -0.234375 C 1.003906 -0.148438 0.941406 -0.0859375 0.859375 -0.046875 C 0.785156 -0.00390625 0.703125 0.015625 0.609375 0.015625 C 0.503906 0.015625 0.410156 -0.00390625 0.328125 -0.046875 C 0.253906 -0.0859375 0.191406 -0.148438 0.140625 -0.234375 C 0.0976562 -0.316406 0.078125 -0.410156 0.078125 -0.515625 C 0.078125 -0.617188 0.0976562 -0.710938 0.140625 -0.796875 C 0.191406 -0.878906 0.253906 -0.941406 0.328125 -0.984375 C 0.410156 -1.035156 0.503906 -1.0625 0.609375 -1.0625 C 0.703125 -1.0625 0.785156 -1.035156 0.859375 -0.984375 C 0.941406 -0.941406 1.003906 -0.878906 1.046875 -0.796875 C 1.097656 -0.710938 1.125 -0.617188 1.125 -0.515625 Z M 0.90625 -0.515625 C 0.90625 -0.578125 0.890625 -0.632812 0.859375 -0.6875 C 0.828125 -0.738281 0.789062 -0.773438 0.75 -0.796875 C 0.707031 -0.828125 0.660156 -0.84375 0.609375 -0.84375 C 0.546875 -0.84375 0.492188 -0.828125 0.453125 -0.796875 C 0.410156 -0.773438 0.375 -0.738281 0.34375 -0.6875 C 0.320312 -0.632812 0.3125 -0.578125 0.3125 -0.515625 C 0.3125 -0.453125 0.320312 -0.394531 0.34375 -0.34375 C 0.375 -0.300781 0.410156 -0.265625 0.453125 -0.234375 C 0.492188 -0.203125 0.546875 -0.1875 0.609375 -0.1875 C 0.660156 -0.1875 0.707031 -0.203125 0.75 -0.234375 C 0.789062 -0.265625 0.828125 -0.300781 0.859375 -0.34375 C 0.890625 -0.394531 0.90625 -0.453125 0.90625 -0.515625 Z M 0.90625 -0.515625 "/></g></g></g><g fill="#233349" fill-opacity="1"><g transform="translate(17.916441, 26.774197)"><g><path d="M 0.65625 -1.0625 C 0.75 -1.0625 0.832031 -1.035156 0.90625 -0.984375 C 0.976562 -0.941406 1.035156 -0.878906 1.078125 -0.796875 C 1.117188 -0.710938 1.140625 -0.617188 1.140625 -0.515625 C 1.140625 -0.410156 1.117188 -0.316406 1.078125 -0.234375 C 1.035156 -0.160156 0.976562 -0.0976562 0.90625 -0.046875 C 0.832031 -0.00390625 0.753906 0.015625 0.671875 0.015625 C 0.617188 0.015625 0.566406 0.0078125 0.515625 0 C 0.472656 -0.0195312 0.4375 -0.0390625 0.40625 -0.0625 C 0.375 -0.09375 0.347656 -0.117188 0.328125 -0.140625 C 0.304688 -0.171875 0.296875 -0.195312 0.296875 -0.21875 L 0.359375 -0.234375 L 0.359375 0.265625 C 0.359375 0.296875 0.347656 0.320312 0.328125 0.34375 C 0.304688 0.375 0.273438 0.390625 0.234375 0.390625 C 0.203125 0.390625 0.175781 0.378906 0.15625 0.359375 C 0.132812 0.335938 0.125 0.304688 0.125 0.265625 L 0.125 -0.921875 C 0.125 -0.953125 0.132812 -0.976562 0.15625 -1 C 0.175781 -1.019531 0.203125 -1.03125 0.234375 -1.03125 C 0.273438 -1.03125 0.304688 -1.019531 0.328125 -1 C 0.347656 -0.976562 0.359375 -0.953125 0.359375 -0.921875 L 0.359375 -0.828125 L 0.328125 -0.84375 C 0.328125 -0.851562 0.332031 -0.867188 0.34375 -0.890625 C 0.363281 -0.921875 0.390625 -0.945312 0.421875 -0.96875 C 0.453125 -1 0.488281 -1.019531 0.53125 -1.03125 C 0.570312 -1.050781 0.613281 -1.0625 0.65625 -1.0625 Z M 0.640625 -0.84375 C 0.578125 -0.84375 0.523438 -0.828125 0.484375 -0.796875 C 0.441406 -0.765625 0.40625 -0.722656 0.375 -0.671875 C 0.351562 -0.628906 0.34375 -0.578125 0.34375 -0.515625 C 0.34375 -0.453125 0.351562 -0.394531 0.375 -0.34375 C 0.40625 -0.300781 0.441406 -0.265625 0.484375 -0.234375 C 0.523438 -0.203125 0.578125 -0.1875 0.640625 -0.1875 C 0.691406 -0.1875 0.738281 -0.203125 0.78125 -0.234375 C 0.820312 -0.265625 0.851562 -0.300781 0.875 -0.34375 C 0.90625 -0.394531 0.921875 -0.453125 0.921875 -0.515625 C 0.921875 -0.578125 0.90625 -0.628906 0.875 -0.671875 C 0.851562 -0.722656 0.820312 -0.765625 0.78125 -0.796875 C 0.738281 -0.828125 0.691406 -0.84375 0.640625 -0.84375 Z M 0.640625 -0.84375 "/></g></g></g><g fill="#233349" fill-opacity="1"><g transform="translate(19.131936, 26.774197)"><g/></g></g><g fill="#233349" fill-opacity="1"><g transform="translate(19.673877, 26.774197)"><g><path d="M 0.265625 0 C 0.234375 0 0.203125 -0.0078125 0.171875 -0.03125 C 0.148438 -0.0507812 0.140625 -0.0820312 0.140625 -0.125 L 0.140625 -1.234375 C 0.140625 -1.265625 0.148438 -1.289062 0.171875 -1.3125 C 0.203125 -1.34375 0.234375 -1.359375 0.265625 -1.359375 L 0.890625 -1.359375 C 0.921875 -1.359375 0.945312 -1.347656 0.96875 -1.328125 C 1 -1.304688 1.015625 -1.273438 1.015625 -1.234375 C 1.015625 -1.210938 1 -1.191406 0.96875 -1.171875 C 0.945312 -1.148438 0.921875 -1.140625 0.890625 -1.140625 L 0.375 -1.140625 L 0.390625 -1.15625 L 0.390625 -0.765625 L 0.375 -0.796875 L 0.8125 -0.796875 C 0.84375 -0.796875 0.867188 -0.785156 0.890625 -0.765625 C 0.910156 -0.742188 0.921875 -0.710938 0.921875 -0.671875 C 0.921875 -0.648438 0.910156 -0.625 0.890625 -0.59375 C 0.867188 -0.570312 0.84375 -0.5625 0.8125 -0.5625 L 0.375 -0.5625 L 0.390625 -0.59375 L 0.390625 -0.125 C 0.390625 -0.0820312 0.375 -0.0507812 0.34375 -0.03125 C 0.320312 -0.0078125 0.296875 0 0.265625 0 Z M 0.265625 0 "/></g></g></g><g fill="#233349" fill-opacity="1"><g transform="translate(20.761628, 26.774197)"><g><path d="M 0.234375 0 C 0.203125 0 0.175781 -0.0078125 0.15625 -0.03125 C 0.132812 -0.0507812 0.125 -0.0820312 0.125 -0.125 L 0.125 -0.921875 C 0.125 -0.953125 0.132812 -0.976562 0.15625 -1 C 0.175781 -1.019531 0.203125 -1.03125 0.234375 -1.03125 C 0.273438 -1.03125 0.304688 -1.019531 0.328125 -1 C 0.347656 -0.976562 0.359375 -0.953125 0.359375 -0.921875 L 0.359375 -0.734375 L 0.34375 -0.859375 C 0.351562 -0.890625 0.367188 -0.914062 0.390625 -0.9375 C 0.421875 -0.96875 0.445312 -0.988281 0.46875 -1 C 0.5 -1.019531 0.53125 -1.035156 0.5625 -1.046875 C 0.59375 -1.054688 0.628906 -1.0625 0.671875 -1.0625 C 0.703125 -1.0625 0.726562 -1.046875 0.75 -1.015625 C 0.78125 -0.992188 0.796875 -0.972656 0.796875 -0.953125 C 0.796875 -0.898438 0.785156 -0.863281 0.765625 -0.84375 C 0.742188 -0.832031 0.722656 -0.828125 0.703125 -0.828125 C 0.671875 -0.828125 0.644531 -0.832031 0.625 -0.84375 C 0.601562 -0.851562 0.582031 -0.859375 0.5625 -0.859375 C 0.539062 -0.859375 0.515625 -0.847656 0.484375 -0.828125 C 0.460938 -0.816406 0.441406 -0.800781 0.421875 -0.78125 C 0.398438 -0.757812 0.382812 -0.726562 0.375 -0.6875 C 0.363281 -0.65625 0.359375 -0.617188 0.359375 -0.578125 L 0.359375 -0.125 C 0.359375 -0.0820312 0.347656 -0.0507812 0.328125 -0.03125 C 0.304688 -0.0078125 0.273438 0 0.234375 0 Z M 0.234375 0 "/></g></g></g><g fill="#233349" fill-opacity="1"><g transform="translate(21.601635, 26.774197)"><g><path d="M 0.34375 -0.125 C 0.34375 -0.0820312 0.332031 -0.0507812 0.3125 -0.03125 C 0.289062 -0.0078125 0.265625 0 0.234375 0 C 0.191406 0 0.160156 -0.0078125 0.140625 -0.03125 C 0.117188 -0.0507812 0.109375 -0.0820312 0.109375 -0.125 L 0.109375 -0.921875 C 0.109375 -0.953125 0.117188 -0.976562 0.140625 -1 C 0.160156 -1.019531 0.191406 -1.03125 0.234375 -1.03125 C 0.265625 -1.03125 0.289062 -1.019531 0.3125 -1 C 0.332031 -0.976562 0.34375 -0.953125 0.34375 -0.921875 Z M 0.234375 -1.15625 C 0.191406 -1.15625 0.160156 -1.160156 0.140625 -1.171875 C 0.117188 -1.191406 0.109375 -1.222656 0.109375 -1.265625 L 0.109375 -1.296875 C 0.109375 -1.335938 0.117188 -1.363281 0.140625 -1.375 C 0.160156 -1.382812 0.191406 -1.390625 0.234375 -1.390625 C 0.273438 -1.390625 0.304688 -1.378906 0.328125 -1.359375 C 0.347656 -1.347656 0.359375 -1.328125 0.359375 -1.296875 L 0.359375 -1.265625 C 0.359375 -1.222656 0.347656 -1.191406 0.328125 -1.171875 C 0.304688 -1.160156 0.273438 -1.15625 0.234375 -1.15625 Z M 0.234375 -1.15625 "/></g></g></g><g fill="#233349" fill-opacity="1"><g transform="translate(22.058413, 26.774197)"><g><path d="M 0.609375 0.015625 C 0.503906 0.015625 0.410156 -0.00390625 0.328125 -0.046875 C 0.242188 -0.0976562 0.179688 -0.160156 0.140625 -0.234375 C 0.0976562 -0.316406 0.078125 -0.40625 0.078125 -0.5 C 0.078125 -0.613281 0.0976562 -0.710938 0.140625 -0.796875 C 0.191406 -0.878906 0.253906 -0.941406 0.328125 -0.984375 C 0.410156 -1.035156 0.492188 -1.0625 0.578125 -1.0625 C 0.640625 -1.0625 0.695312 -1.046875 0.75 -1.015625 C 0.8125 -0.984375 0.863281 -0.941406 0.90625 -0.890625 C 0.957031 -0.847656 0.992188 -0.796875 1.015625 -0.734375 C 1.046875 -0.671875 1.0625 -0.609375 1.0625 -0.546875 C 1.0625 -0.515625 1.050781 -0.488281 1.03125 -0.46875 C 1.007812 -0.445312 0.984375 -0.4375 0.953125 -0.4375 L 0.203125 -0.4375 L 0.15625 -0.625 L 0.859375 -0.625 L 0.8125 -0.59375 L 0.8125 -0.640625 C 0.8125 -0.679688 0.796875 -0.71875 0.765625 -0.75 C 0.742188 -0.78125 0.71875 -0.800781 0.6875 -0.8125 C 0.65625 -0.832031 0.617188 -0.84375 0.578125 -0.84375 C 0.535156 -0.84375 0.5 -0.835938 0.46875 -0.828125 C 0.4375 -0.816406 0.40625 -0.796875 0.375 -0.765625 C 0.351562 -0.742188 0.332031 -0.710938 0.3125 -0.671875 C 0.300781 -0.628906 0.296875 -0.578125 0.296875 -0.515625 C 0.296875 -0.453125 0.3125 -0.394531 0.34375 -0.34375 C 0.375 -0.289062 0.410156 -0.25 0.453125 -0.21875 C 0.503906 -0.195312 0.554688 -0.1875 0.609375 -0.1875 C 0.648438 -0.1875 0.6875 -0.191406 0.71875 -0.203125 C 0.75 -0.210938 0.769531 -0.222656 0.78125 -0.234375 C 0.800781 -0.242188 0.816406 -0.253906 0.828125 -0.265625 C 0.859375 -0.273438 0.882812 -0.28125 0.90625 -0.28125 C 0.925781 -0.28125 0.945312 -0.269531 0.96875 -0.25 C 0.988281 -0.226562 1 -0.207031 1 -0.1875 C 1 -0.144531 0.976562 -0.113281 0.9375 -0.09375 C 0.90625 -0.0625 0.859375 -0.0351562 0.796875 -0.015625 C 0.742188 0.00390625 0.679688 0.015625 0.609375 0.015625 Z M 0.609375 0.015625 "/></g></g></g><g fill="#233349" fill-opacity="1"><g transform="translate(23.200357, 26.774197)"><g><path d="M 0.6875 -1.0625 C 0.78125 -1.0625 0.847656 -1.039062 0.890625 -1 C 0.941406 -0.957031 0.976562 -0.898438 1 -0.828125 C 1.019531 -0.765625 1.03125 -0.691406 1.03125 -0.609375 L 1.03125 -0.125 C 1.03125 -0.0820312 1.019531 -0.0507812 1 -0.03125 C 0.976562 -0.0078125 0.945312 0 0.90625 0 C 0.875 0 0.847656 -0.0078125 0.828125 -0.03125 C 0.804688 -0.0507812 0.796875 -0.0820312 0.796875 -0.125 L 0.796875 -0.609375 C 0.796875 -0.648438 0.789062 -0.6875 0.78125 -0.71875 C 0.769531 -0.757812 0.75 -0.789062 0.71875 -0.8125 C 0.6875 -0.832031 0.644531 -0.84375 0.59375 -0.84375 C 0.539062 -0.84375 0.5 -0.832031 0.46875 -0.8125 C 0.4375 -0.789062 0.410156 -0.757812 0.390625 -0.71875 C 0.367188 -0.6875 0.359375 -0.648438 0.359375 -0.609375 L 0.359375 -0.125 C 0.359375 -0.0820312 0.347656 -0.0507812 0.328125 -0.03125 C 0.304688 -0.0078125 0.273438 0 0.234375 0 C 0.203125 0 0.175781 -0.0078125 0.15625 -0.03125 C 0.132812 -0.0507812 0.125 -0.0820312 0.125 -0.125 L 0.125 -0.921875 C 0.125 -0.953125 0.132812 -0.976562 0.15625 -1 C 0.175781 -1.019531 0.203125 -1.03125 0.234375 -1.03125 C 0.273438 -1.03125 0.304688 -1.019531 0.328125 -1 C 0.347656 -0.976562 0.359375 -0.953125 0.359375 -0.921875 L 0.359375 -0.828125 L 0.328125 -0.84375 C 0.335938 -0.863281 0.351562 -0.882812 0.375 -0.90625 C 0.394531 -0.9375 0.421875 -0.960938 0.453125 -0.984375 C 0.484375 -1.003906 0.515625 -1.019531 0.546875 -1.03125 C 0.585938 -1.050781 0.632812 -1.0625 0.6875 -1.0625 Z M 0.6875 -1.0625 "/></g></g></g><g fill="#233349" fill-opacity="1"><g transform="translate(24.353916, 26.774197)"><g><path d="M 0.96875 -1.4375 C 1.007812 -1.4375 1.039062 -1.425781 1.0625 -1.40625 C 1.082031 -1.382812 1.09375 -1.351562 1.09375 -1.3125 L 1.09375 -0.125 C 1.09375 -0.0820312 1.082031 -0.0507812 1.0625 -0.03125 C 1.039062 -0.0078125 1.007812 0 0.96875 0 C 0.9375 0 0.910156 -0.0078125 0.890625 -0.03125 C 0.867188 -0.0507812 0.859375 -0.0820312 0.859375 -0.125 L 0.859375 -0.21875 L 0.90625 -0.203125 C 0.90625 -0.179688 0.894531 -0.15625 0.875 -0.125 C 0.851562 -0.101562 0.828125 -0.0820312 0.796875 -0.0625 C 0.765625 -0.0390625 0.726562 -0.0195312 0.6875 0 C 0.644531 0.0078125 0.597656 0.015625 0.546875 0.015625 C 0.460938 0.015625 0.382812 -0.00390625 0.3125 -0.046875 C 0.238281 -0.0976562 0.179688 -0.160156 0.140625 -0.234375 C 0.0976562 -0.316406 0.078125 -0.410156 0.078125 -0.515625 C 0.078125 -0.617188 0.0976562 -0.710938 0.140625 -0.796875 C 0.179688 -0.878906 0.238281 -0.941406 0.3125 -0.984375 C 0.382812 -1.035156 0.460938 -1.0625 0.546875 -1.0625 C 0.597656 -1.0625 0.644531 -1.050781 0.6875 -1.03125 C 0.738281 -1.007812 0.78125 -0.984375 0.8125 -0.953125 C 0.851562 -0.929688 0.878906 -0.90625 0.890625 -0.875 C 0.910156 -0.851562 0.921875 -0.835938 0.921875 -0.828125 L 0.859375 -0.796875 L 0.859375 -1.3125 C 0.859375 -1.34375 0.867188 -1.367188 0.890625 -1.390625 C 0.910156 -1.421875 0.9375 -1.4375 0.96875 -1.4375 Z M 0.578125 -0.1875 C 0.640625 -0.1875 0.691406 -0.203125 0.734375 -0.234375 C 0.773438 -0.265625 0.804688 -0.300781 0.828125 -0.34375 C 0.859375 -0.394531 0.875 -0.453125 0.875 -0.515625 C 0.875 -0.578125 0.859375 -0.628906 0.828125 -0.671875 C 0.804688 -0.722656 0.773438 -0.765625 0.734375 -0.796875 C 0.691406 -0.828125 0.640625 -0.84375 0.578125 -0.84375 C 0.523438 -0.84375 0.476562 -0.828125 0.4375 -0.796875 C 0.394531 -0.765625 0.359375 -0.722656 0.328125 -0.671875 C 0.304688 -0.628906 0.296875 -0.578125 0.296875 -0.515625 C 0.296875 -0.453125 0.304688 -0.394531 0.328125 -0.34375 C 0.359375 -0.300781 0.394531 -0.265625 0.4375 -0.234375 C 0.476562 -0.203125 0.523438 -0.1875 0.578125 -0.1875 Z M 0.578125 -0.1875 "/></g></g></g><g fill="#233349" fill-opacity="1"><g transform="translate(25.56941, 26.774197)"><g><path d="M 0.375 -0.125 C 0.375 -0.0820312 0.363281 -0.0507812 0.34375 -0.03125 C 0.320312 -0.0078125 0.296875 0 0.265625 0 C 0.234375 0 0.203125 -0.0078125 0.171875 -0.03125 C 0.148438 -0.0507812 0.140625 -0.0820312 0.140625 -0.125 L 0.140625 -1.3125 C 0.140625 -1.34375 0.148438 -1.367188 0.171875 -1.390625 C 0.203125 -1.421875 0.234375 -1.4375 0.265625 -1.4375 C 0.296875 -1.4375 0.320312 -1.421875 0.34375 -1.390625 C 0.363281 -1.367188 0.375 -1.34375 0.375 -1.3125 Z M 0.375 -0.125 "/></g></g></g><g fill="#233349" fill-opacity="1"><g transform="translate(26.091995, 26.774197)"><g><path d="M 0.890625 -1.03125 C 0.929688 -1.03125 0.960938 -1.019531 0.984375 -1 C 1.003906 -0.976562 1.015625 -0.953125 1.015625 -0.921875 L 1.015625 -0.09375 C 1.015625 0.0195312 0.988281 0.113281 0.9375 0.1875 C 0.894531 0.257812 0.835938 0.3125 0.765625 0.34375 C 0.691406 0.375 0.609375 0.390625 0.515625 0.390625 C 0.472656 0.390625 0.425781 0.382812 0.375 0.375 C 0.332031 0.375 0.296875 0.363281 0.265625 0.34375 C 0.222656 0.332031 0.195312 0.3125 0.1875 0.28125 C 0.175781 0.257812 0.171875 0.234375 0.171875 0.203125 C 0.191406 0.171875 0.210938 0.144531 0.234375 0.125 C 0.253906 0.113281 0.28125 0.113281 0.3125 0.125 C 0.332031 0.132812 0.359375 0.144531 0.390625 0.15625 C 0.429688 0.164062 0.472656 0.171875 0.515625 0.171875 C 0.578125 0.171875 0.625 0.160156 0.65625 0.140625 C 0.695312 0.128906 0.726562 0.101562 0.75 0.0625 C 0.769531 0.03125 0.78125 -0.0195312 0.78125 -0.09375 L 0.78125 -0.21875 L 0.828125 -0.171875 C 0.796875 -0.128906 0.765625 -0.09375 0.734375 -0.0625 C 0.703125 -0.03125 0.660156 -0.0078125 0.609375 0 C 0.566406 0.0078125 0.519531 0.015625 0.46875 0.015625 C 0.394531 0.015625 0.332031 0 0.28125 -0.03125 C 0.238281 -0.0625 0.203125 -0.101562 0.171875 -0.15625 C 0.140625 -0.21875 0.125 -0.285156 0.125 -0.359375 L 0.125 -0.921875 C 0.125 -0.953125 0.132812 -0.976562 0.15625 -1 C 0.175781 -1.019531 0.203125 -1.03125 0.234375 -1.03125 C 0.273438 -1.03125 0.304688 -1.019531 0.328125 -1 C 0.347656 -0.976562 0.359375 -0.953125 0.359375 -0.921875 L 0.359375 -0.421875 C 0.359375 -0.335938 0.375 -0.273438 0.40625 -0.234375 C 0.445312 -0.203125 0.5 -0.1875 0.5625 -0.1875 C 0.613281 -0.1875 0.65625 -0.195312 0.6875 -0.21875 C 0.71875 -0.238281 0.738281 -0.265625 0.75 -0.296875 C 0.769531 -0.328125 0.78125 -0.367188 0.78125 -0.421875 L 0.78125 -0.921875 C 0.78125 -0.953125 0.789062 -0.976562 0.8125 -1 C 0.832031 -1.019531 0.859375 -1.03125 0.890625 -1.03125 Z M 0.890625 -1.03125 "/></g></g></g></svg>