<svg xmlns="http://www.w3.org/2000/svg" xmlns:xlink="http://www.w3.org/1999/xlink" width="3000" zoomAndPan="magnify" viewBox="0 0 2250 225" height="300" preserveAspectRatio="xMidYMid meet" version="1.0"><defs><g/><clipPath id="df25d4132f"><path d="M 1156 72 L 1237.5 72 L 1237.5 174.375 L 1156 174.375 Z M 1156 72 " clip-rule="nonzero"/></clipPath><clipPath id="3e5cddc8e8"><path d="M 1012.5 12.375 L 1197 12.375 L 1197 174.375 L 1012.5 174.375 Z M 1012.5 12.375 " clip-rule="nonzero"/></clipPath></defs><rect x="-225" width="2700" fill="#ffffff" y="-22.5" height="270" fill-opacity="1"/><rect x="-225" width="2700" fill="#ffffff" y="-22.5" height="270" fill-opacity="1"/><g clip-path="url(#df25d4132f)"><path fill="#233349" d="M 1225.921875 158.402344 L 1167.375 158.402344 L 1167.375 86.6875 L 1225.921875 86.6875 Z M 1228.53125 72.046875 L 1164.773438 72.046875 C 1159.957031 72.046875 1156.035156 75.96875 1156.035156 80.785156 L 1156.035156 165.511719 C 1156.035156 170.328125 1159.957031 174.25 1164.773438 174.25 L 1228.53125 174.25 C 1233.347656 174.25 1237.261719 170.328125 1237.261719 165.511719 L 1237.261719 80.785156 C 1237.261719 75.96875 1233.347656 72.046875 1228.53125 72.046875 " fill-opacity="1" fill-rule="nonzero"/></g><g clip-path="url(#3e5cddc8e8)"><path fill="#233349" d="M 1028.472656 28.238281 L 1180.257812 28.238281 L 1180.257812 66.140625 L 1196.171875 66.140625 L 1196.171875 26.300781 C 1196.171875 22.578125 1194.722656 19.070312 1192.070312 16.433594 C 1189.421875 13.785156 1185.917969 12.320312 1182.214844 12.320312 L 1026.523438 12.320312 C 1022.816406 12.320312 1019.308594 13.785156 1016.664062 16.433594 C 1014.007812 19.070312 1012.558594 22.578125 1012.558594 26.300781 L 1012.558594 132.050781 C 1012.558594 135.773438 1014.007812 139.269531 1016.664062 141.917969 C 1019.308594 144.566406 1022.816406 146.023438 1026.523438 146.023438 L 1087.433594 146.023438 L 1077.839844 164.582031 L 1067.21875 164.582031 C 1065.386719 164.582031 1063.789062 166.152344 1063.789062 167.996094 L 1063.789062 170.835938 C 1063.789062 172.6875 1065.359375 174.25 1067.21875 174.25 C 1085.1875 174.25 1084.625 174.25 1092.355469 174.25 L 1096.34375 174.25 C 1096.34375 174.25 1100.363281 174.25 1112.386719 174.25 L 1116.378906 174.25 C 1124.105469 174.25 1123.542969 174.25 1141.527344 174.25 C 1143.375 174.25 1144.941406 172.664062 1144.941406 170.835938 L 1144.941406 167.996094 C 1144.941406 166.160156 1143.359375 164.582031 1141.527344 164.582031 L 1130.894531 164.582031 L 1121.296875 146.023438 L 1150.128906 146.023438 L 1150.128906 130.09375 L 1028.472656 130.09375 L 1028.472656 28.238281 " fill-opacity="1" fill-rule="nonzero"/></g><g fill="#233349" fill-opacity="1"><g transform="translate(1030.226453, 207.500014)"><g><path d="M 2.0625 -10.515625 C 2.207031 -10.515625 2.359375 -10.476562 2.515625 -10.40625 C 2.671875 -10.332031 2.785156 -10.234375 2.859375 -10.109375 L 6.515625 -4.5 L 5.765625 -4.53125 L 9.5 -10.109375 C 9.6875 -10.378906 9.929688 -10.515625 10.234375 -10.515625 C 10.472656 -10.515625 10.6875 -10.425781 10.875 -10.25 C 11.0625 -10.082031 11.15625 -9.863281 11.15625 -9.59375 L 11.15625 -0.921875 C 11.15625 -0.660156 11.070312 -0.441406 10.90625 -0.265625 C 10.738281 -0.0859375 10.515625 0 10.234375 0 C 9.953125 0 9.722656 -0.0859375 9.546875 -0.265625 C 9.367188 -0.441406 9.28125 -0.660156 9.28125 -0.921875 L 9.28125 -7.984375 L 9.875 -7.84375 L 6.8125 -3.1875 C 6.71875 -3.070312 6.601562 -2.972656 6.46875 -2.890625 C 6.332031 -2.816406 6.195312 -2.785156 6.0625 -2.796875 C 5.925781 -2.785156 5.789062 -2.816406 5.65625 -2.890625 C 5.519531 -2.972656 5.410156 -3.070312 5.328125 -3.1875 L 2.453125 -7.703125 L 2.84375 -8.5 L 2.84375 -0.921875 C 2.84375 -0.660156 2.765625 -0.441406 2.609375 -0.265625 C 2.453125 -0.0859375 2.242188 0 1.984375 0 C 1.734375 0 1.523438 -0.0859375 1.359375 -0.265625 C 1.203125 -0.441406 1.125 -0.660156 1.125 -0.921875 L 1.125 -9.59375 C 1.125 -9.84375 1.21875 -10.054688 1.40625 -10.234375 C 1.59375 -10.421875 1.8125 -10.515625 2.0625 -10.515625 Z M 2.0625 -10.515625 "/></g></g></g><g fill="#233349" fill-opacity="1"><g transform="translate(1042.511548, 207.500014)"><g><path d="M 8.765625 -4 C 8.765625 -3.1875 8.582031 -2.46875 8.21875 -1.84375 C 7.851562 -1.21875 7.359375 -0.726562 6.734375 -0.375 C 6.117188 -0.0195312 5.4375 0.15625 4.6875 0.15625 C 3.925781 0.15625 3.234375 -0.0195312 2.609375 -0.375 C 1.992188 -0.726562 1.503906 -1.21875 1.140625 -1.84375 C 0.773438 -2.46875 0.59375 -3.1875 0.59375 -4 C 0.59375 -4.820312 0.773438 -5.546875 1.140625 -6.171875 C 1.503906 -6.796875 1.992188 -7.285156 2.609375 -7.640625 C 3.234375 -7.992188 3.925781 -8.171875 4.6875 -8.171875 C 5.4375 -8.171875 6.117188 -7.992188 6.734375 -7.640625 C 7.359375 -7.285156 7.851562 -6.796875 8.21875 -6.171875 C 8.582031 -5.546875 8.765625 -4.820312 8.765625 -4 Z M 6.953125 -4 C 6.953125 -4.507812 6.847656 -4.953125 6.640625 -5.328125 C 6.441406 -5.703125 6.171875 -5.992188 5.828125 -6.203125 C 5.484375 -6.421875 5.101562 -6.53125 4.6875 -6.53125 C 4.257812 -6.53125 3.875 -6.421875 3.53125 -6.203125 C 3.1875 -5.992188 2.910156 -5.703125 2.703125 -5.328125 C 2.503906 -4.953125 2.40625 -4.507812 2.40625 -4 C 2.40625 -3.5 2.503906 -3.0625 2.703125 -2.6875 C 2.910156 -2.3125 3.1875 -2.019531 3.53125 -1.8125 C 3.875 -1.601562 4.257812 -1.5 4.6875 -1.5 C 5.101562 -1.5 5.484375 -1.601562 5.828125 -1.8125 C 6.171875 -2.019531 6.441406 -2.3125 6.640625 -2.6875 C 6.847656 -3.0625 6.953125 -3.5 6.953125 -4 Z M 6.953125 -4 "/></g></g></g><g fill="#233349" fill-opacity="1"><g transform="translate(1051.871624, 207.500014)"><g><path d="M 5.125 -8.171875 C 5.832031 -8.171875 6.460938 -7.992188 7.015625 -7.640625 C 7.566406 -7.285156 8.003906 -6.796875 8.328125 -6.171875 C 8.648438 -5.554688 8.8125 -4.835938 8.8125 -4.015625 C 8.8125 -3.203125 8.648438 -2.484375 8.328125 -1.859375 C 8.003906 -1.234375 7.566406 -0.738281 7.015625 -0.375 C 6.472656 -0.0195312 5.863281 0.15625 5.1875 0.15625 C 4.789062 0.15625 4.414062 0.09375 4.0625 -0.03125 C 3.71875 -0.164062 3.410156 -0.332031 3.140625 -0.53125 C 2.878906 -0.738281 2.675781 -0.941406 2.53125 -1.140625 C 2.382812 -1.347656 2.3125 -1.523438 2.3125 -1.671875 L 2.78125 -1.859375 L 2.78125 -0.765625 C 2.78125 -0.503906 2.691406 -0.285156 2.515625 -0.109375 C 2.347656 0.0664062 2.132812 0.15625 1.875 0.15625 C 1.613281 0.15625 1.394531 0.0703125 1.21875 -0.09375 C 1.050781 -0.269531 0.96875 -0.492188 0.96875 -0.765625 L 0.96875 -10.1875 C 0.96875 -10.445312 1.050781 -10.660156 1.21875 -10.828125 C 1.394531 -11.003906 1.613281 -11.09375 1.875 -11.09375 C 2.132812 -11.09375 2.347656 -11.003906 2.515625 -10.828125 C 2.691406 -10.660156 2.78125 -10.445312 2.78125 -10.1875 L 2.78125 -6.375 L 2.515625 -6.515625 C 2.515625 -6.640625 2.582031 -6.796875 2.71875 -6.984375 C 2.863281 -7.171875 3.054688 -7.351562 3.296875 -7.53125 C 3.535156 -7.71875 3.8125 -7.867188 4.125 -7.984375 C 4.445312 -8.109375 4.78125 -8.171875 5.125 -8.171875 Z M 4.90625 -6.53125 C 4.46875 -6.53125 4.082031 -6.414062 3.75 -6.1875 C 3.414062 -5.96875 3.15625 -5.671875 2.96875 -5.296875 C 2.789062 -4.921875 2.703125 -4.492188 2.703125 -4.015625 C 2.703125 -3.546875 2.789062 -3.117188 2.96875 -2.734375 C 3.15625 -2.347656 3.414062 -2.046875 3.75 -1.828125 C 4.082031 -1.609375 4.46875 -1.5 4.90625 -1.5 C 5.34375 -1.5 5.722656 -1.609375 6.046875 -1.828125 C 6.378906 -2.046875 6.632812 -2.347656 6.8125 -2.734375 C 7 -3.117188 7.09375 -3.546875 7.09375 -4.015625 C 7.09375 -4.492188 7 -4.921875 6.8125 -5.296875 C 6.632812 -5.671875 6.378906 -5.96875 6.046875 -6.1875 C 5.722656 -6.414062 5.34375 -6.53125 4.90625 -6.53125 Z M 4.90625 -6.53125 "/></g></g></g><g fill="#233349" fill-opacity="1"><g transform="translate(1061.291706, 207.500014)"><g><path d="M 2.671875 -0.921875 C 2.671875 -0.660156 2.582031 -0.441406 2.40625 -0.265625 C 2.238281 -0.0859375 2.023438 0 1.765625 0 C 1.503906 0 1.289062 -0.0859375 1.125 -0.265625 C 0.957031 -0.441406 0.875 -0.660156 0.875 -0.921875 L 0.875 -7.109375 C 0.875 -7.367188 0.957031 -7.585938 1.125 -7.765625 C 1.289062 -7.941406 1.503906 -8.03125 1.765625 -8.03125 C 2.023438 -8.03125 2.238281 -7.941406 2.40625 -7.765625 C 2.582031 -7.585938 2.671875 -7.367188 2.671875 -7.109375 Z M 1.765625 -9 C 1.421875 -9 1.175781 -9.050781 1.03125 -9.15625 C 0.894531 -9.269531 0.828125 -9.46875 0.828125 -9.75 L 0.828125 -10.03125 C 0.828125 -10.320312 0.90625 -10.519531 1.0625 -10.625 C 1.21875 -10.726562 1.453125 -10.78125 1.765625 -10.78125 C 2.117188 -10.78125 2.363281 -10.722656 2.5 -10.609375 C 2.644531 -10.503906 2.71875 -10.3125 2.71875 -10.03125 L 2.71875 -9.75 C 2.71875 -9.457031 2.640625 -9.257812 2.484375 -9.15625 C 2.335938 -9.050781 2.097656 -9 1.765625 -9 Z M 1.765625 -9 "/></g></g></g><g fill="#233349" fill-opacity="1"><g transform="translate(1064.83173, 207.500014)"><g><path d="M 2.921875 -0.921875 C 2.921875 -0.660156 2.832031 -0.441406 2.65625 -0.265625 C 2.488281 -0.0859375 2.273438 0 2.015625 0 C 1.765625 0 1.550781 -0.0859375 1.375 -0.265625 C 1.207031 -0.441406 1.125 -0.660156 1.125 -0.921875 L 1.125 -10.1875 C 1.125 -10.445312 1.210938 -10.660156 1.390625 -10.828125 C 1.566406 -11.003906 1.785156 -11.09375 2.046875 -11.09375 C 2.304688 -11.09375 2.515625 -11.003906 2.671875 -10.828125 C 2.835938 -10.660156 2.921875 -10.445312 2.921875 -10.1875 Z M 2.921875 -0.921875 "/></g></g></g><g fill="#233349" fill-opacity="1"><g transform="translate(1068.881761, 207.500014)"><g><path d="M 4.75 0.15625 C 3.90625 0.15625 3.171875 -0.0195312 2.546875 -0.375 C 1.921875 -0.738281 1.4375 -1.222656 1.09375 -1.828125 C 0.757812 -2.441406 0.59375 -3.132812 0.59375 -3.90625 C 0.59375 -4.800781 0.773438 -5.566406 1.140625 -6.203125 C 1.503906 -6.835938 1.984375 -7.320312 2.578125 -7.65625 C 3.171875 -8 3.796875 -8.171875 4.453125 -8.171875 C 4.960938 -8.171875 5.441406 -8.066406 5.890625 -7.859375 C 6.347656 -7.648438 6.753906 -7.363281 7.109375 -7 C 7.460938 -6.632812 7.738281 -6.210938 7.9375 -5.734375 C 8.144531 -5.253906 8.25 -4.742188 8.25 -4.203125 C 8.238281 -3.960938 8.140625 -3.765625 7.953125 -3.609375 C 7.773438 -3.460938 7.566406 -3.390625 7.328125 -3.390625 L 1.609375 -3.390625 L 1.15625 -4.890625 L 6.65625 -4.890625 L 6.328125 -4.59375 L 6.328125 -5 C 6.304688 -5.289062 6.203125 -5.550781 6.015625 -5.78125 C 5.835938 -6.007812 5.609375 -6.191406 5.328125 -6.328125 C 5.054688 -6.460938 4.765625 -6.53125 4.453125 -6.53125 C 4.148438 -6.53125 3.867188 -6.488281 3.609375 -6.40625 C 3.347656 -6.320312 3.125 -6.1875 2.9375 -6 C 2.75 -5.8125 2.597656 -5.554688 2.484375 -5.234375 C 2.378906 -4.910156 2.328125 -4.503906 2.328125 -4.015625 C 2.328125 -3.472656 2.4375 -3.015625 2.65625 -2.640625 C 2.882812 -2.265625 3.175781 -1.976562 3.53125 -1.78125 C 3.882812 -1.59375 4.265625 -1.5 4.671875 -1.5 C 5.035156 -1.5 5.328125 -1.53125 5.546875 -1.59375 C 5.765625 -1.65625 5.941406 -1.726562 6.078125 -1.8125 C 6.210938 -1.894531 6.335938 -1.96875 6.453125 -2.03125 C 6.628906 -2.113281 6.796875 -2.15625 6.953125 -2.15625 C 7.179688 -2.15625 7.363281 -2.078125 7.5 -1.921875 C 7.644531 -1.773438 7.71875 -1.601562 7.71875 -1.40625 C 7.71875 -1.132812 7.582031 -0.890625 7.3125 -0.671875 C 7.050781 -0.453125 6.679688 -0.257812 6.203125 -0.09375 C 5.734375 0.0703125 5.25 0.15625 4.75 0.15625 Z M 4.75 0.15625 "/></g></g></g><g fill="#233349" fill-opacity="1"><g transform="translate(1077.731831, 207.500014)"><g/></g></g><g fill="#233349" fill-opacity="1"><g transform="translate(1081.931875, 207.500014)"><g><path d="M 4.1875 0.15625 C 3.476562 0.15625 2.835938 0 2.265625 -0.3125 C 1.703125 -0.625 1.257812 -1.03125 0.9375 -1.53125 C 0.613281 -2.03125 0.453125 -2.566406 0.453125 -3.140625 C 0.453125 -3.640625 0.535156 -4.09375 0.703125 -4.5 C 0.878906 -4.914062 1.144531 -5.285156 1.5 -5.609375 C 1.863281 -5.929688 2.316406 -6.203125 2.859375 -6.421875 L 4.03125 -5.203125 C 3.332031 -5.054688 2.863281 -4.828125 2.625 -4.515625 C 2.394531 -4.210938 2.28125 -3.84375 2.28125 -3.40625 C 2.28125 -3.101562 2.351562 -2.804688 2.5 -2.515625 C 2.65625 -2.234375 2.898438 -2 3.234375 -1.8125 C 3.578125 -1.632812 4.035156 -1.546875 4.609375 -1.546875 C 5.078125 -1.546875 5.5 -1.648438 5.875 -1.859375 C 6.25 -2.078125 6.570312 -2.363281 6.84375 -2.71875 C 7.125 -3.070312 7.347656 -3.46875 7.515625 -3.90625 C 7.691406 -4.34375 7.8125 -4.785156 7.875 -5.234375 C 7.894531 -5.390625 7.957031 -5.515625 8.0625 -5.609375 C 8.164062 -5.703125 8.34375 -5.75 8.59375 -5.75 C 8.851562 -5.75 9.054688 -5.640625 9.203125 -5.421875 C 9.359375 -5.210938 9.414062 -4.96875 9.375 -4.6875 C 9.28125 -4.09375 9.101562 -3.503906 8.84375 -2.921875 C 8.59375 -2.347656 8.253906 -1.828125 7.828125 -1.359375 C 7.410156 -0.898438 6.898438 -0.53125 6.296875 -0.25 C 5.691406 0.0195312 4.988281 0.15625 4.1875 0.15625 Z M 9.53125 0.03125 C 9.40625 0.03125 9.300781 0.015625 9.21875 -0.015625 C 9.132812 -0.046875 9.066406 -0.0820312 9.015625 -0.125 C 8.296875 -0.738281 7.640625 -1.304688 7.046875 -1.828125 C 6.453125 -2.359375 5.90625 -2.863281 5.40625 -3.34375 C 4.90625 -3.820312 4.429688 -4.3125 3.984375 -4.8125 C 3.640625 -5.21875 3.320312 -5.578125 3.03125 -5.890625 C 2.738281 -6.210938 2.503906 -6.523438 2.328125 -6.828125 C 2.148438 -7.140625 2.0625 -7.476562 2.0625 -7.84375 C 2.0625 -8.332031 2.191406 -8.789062 2.453125 -9.21875 C 2.722656 -9.644531 3.101562 -9.988281 3.59375 -10.25 C 4.082031 -10.519531 4.664062 -10.65625 5.34375 -10.65625 C 6.03125 -10.65625 6.648438 -10.535156 7.203125 -10.296875 C 7.765625 -10.066406 8.140625 -9.765625 8.328125 -9.390625 C 8.335938 -9.378906 8.359375 -9.316406 8.390625 -9.203125 C 8.429688 -9.085938 8.453125 -8.957031 8.453125 -8.8125 C 8.453125 -8.613281 8.382812 -8.441406 8.25 -8.296875 C 8.113281 -8.160156 7.925781 -8.09375 7.6875 -8.09375 C 7.519531 -8.09375 7.390625 -8.125 7.296875 -8.1875 C 7.210938 -8.25 7.144531 -8.3125 7.09375 -8.375 C 6.875 -8.664062 6.617188 -8.867188 6.328125 -8.984375 C 6.046875 -9.097656 5.71875 -9.15625 5.34375 -9.15625 C 4.894531 -9.15625 4.550781 -9.035156 4.3125 -8.796875 C 4.070312 -8.554688 3.953125 -8.269531 3.953125 -7.9375 C 3.953125 -7.625 4.0625 -7.316406 4.28125 -7.015625 C 4.507812 -6.710938 4.765625 -6.425781 5.046875 -6.15625 C 5.328125 -5.882812 5.566406 -5.644531 5.765625 -5.4375 C 6.066406 -5.101562 6.410156 -4.75 6.796875 -4.375 C 7.179688 -4 7.566406 -3.632812 7.953125 -3.28125 C 8.347656 -2.925781 8.710938 -2.59375 9.046875 -2.28125 C 9.390625 -1.976562 9.664062 -1.726562 9.875 -1.53125 C 10 -1.40625 10.09375 -1.28125 10.15625 -1.15625 C 10.226562 -1.039062 10.265625 -0.898438 10.265625 -0.734375 C 10.265625 -0.609375 10.207031 -0.445312 10.09375 -0.25 C 9.976562 -0.0625 9.789062 0.03125 9.53125 0.03125 Z M 9.53125 0.03125 "/></g></g></g><g fill="#233349" fill-opacity="1"><g transform="translate(1092.566958, 207.500014)"><g/></g></g><g fill="#233349" fill-opacity="1"><g transform="translate(1096.767002, 207.500014)"><g><path d="M 5.625 -10.5 C 6.34375 -10.5 6.984375 -10.363281 7.546875 -10.09375 C 8.109375 -9.820312 8.582031 -9.441406 8.96875 -8.953125 C 9.351562 -8.472656 9.640625 -7.914062 9.828125 -7.28125 C 10.023438 -6.644531 10.125 -5.96875 10.125 -5.25 C 10.125 -4.28125 9.945312 -3.394531 9.59375 -2.59375 C 9.25 -1.800781 8.742188 -1.171875 8.078125 -0.703125 C 7.410156 -0.234375 6.59375 0 5.625 0 L 2.046875 0 C 1.785156 0 1.566406 -0.0859375 1.390625 -0.265625 C 1.210938 -0.441406 1.125 -0.660156 1.125 -0.921875 L 1.125 -9.578125 C 1.125 -9.835938 1.210938 -10.054688 1.390625 -10.234375 C 1.566406 -10.410156 1.785156 -10.5 2.046875 -10.5 Z M 5.46875 -1.71875 C 6.101562 -1.71875 6.617188 -1.878906 7.015625 -2.203125 C 7.421875 -2.535156 7.710938 -2.96875 7.890625 -3.5 C 8.078125 -4.039062 8.171875 -4.625 8.171875 -5.25 C 8.171875 -5.71875 8.117188 -6.164062 8.015625 -6.59375 C 7.910156 -7.019531 7.75 -7.394531 7.53125 -7.71875 C 7.3125 -8.039062 7.03125 -8.296875 6.6875 -8.484375 C 6.351562 -8.679688 5.945312 -8.78125 5.46875 -8.78125 L 2.84375 -8.78125 L 3 -8.90625 L 3 -1.5625 L 2.90625 -1.71875 Z M 5.46875 -1.71875 "/></g></g></g><g fill="#233349" fill-opacity="1"><g transform="translate(1107.492093, 207.500014)"><g><path d="M 4.75 0.15625 C 3.90625 0.15625 3.171875 -0.0195312 2.546875 -0.375 C 1.921875 -0.738281 1.4375 -1.222656 1.09375 -1.828125 C 0.757812 -2.441406 0.59375 -3.132812 0.59375 -3.90625 C 0.59375 -4.800781 0.773438 -5.566406 1.140625 -6.203125 C 1.503906 -6.835938 1.984375 -7.320312 2.578125 -7.65625 C 3.171875 -8 3.796875 -8.171875 4.453125 -8.171875 C 4.960938 -8.171875 5.441406 -8.066406 5.890625 -7.859375 C 6.347656 -7.648438 6.753906 -7.363281 7.109375 -7 C 7.460938 -6.632812 7.738281 -6.210938 7.9375 -5.734375 C 8.144531 -5.253906 8.25 -4.742188 8.25 -4.203125 C 8.238281 -3.960938 8.140625 -3.765625 7.953125 -3.609375 C 7.773438 -3.460938 7.566406 -3.390625 7.328125 -3.390625 L 1.609375 -3.390625 L 1.15625 -4.890625 L 6.65625 -4.890625 L 6.328125 -4.59375 L 6.328125 -5 C 6.304688 -5.289062 6.203125 -5.550781 6.015625 -5.78125 C 5.835938 -6.007812 5.609375 -6.191406 5.328125 -6.328125 C 5.054688 -6.460938 4.765625 -6.53125 4.453125 -6.53125 C 4.148438 -6.53125 3.867188 -6.488281 3.609375 -6.40625 C 3.347656 -6.320312 3.125 -6.1875 2.9375 -6 C 2.75 -5.8125 2.597656 -5.554688 2.484375 -5.234375 C 2.378906 -4.910156 2.328125 -4.503906 2.328125 -4.015625 C 2.328125 -3.472656 2.4375 -3.015625 2.65625 -2.640625 C 2.882812 -2.265625 3.175781 -1.976562 3.53125 -1.78125 C 3.882812 -1.59375 4.265625 -1.5 4.671875 -1.5 C 5.035156 -1.5 5.328125 -1.53125 5.546875 -1.59375 C 5.765625 -1.65625 5.941406 -1.726562 6.078125 -1.8125 C 6.210938 -1.894531 6.335938 -1.96875 6.453125 -2.03125 C 6.628906 -2.113281 6.796875 -2.15625 6.953125 -2.15625 C 7.179688 -2.15625 7.363281 -2.078125 7.5 -1.921875 C 7.644531 -1.773438 7.71875 -1.601562 7.71875 -1.40625 C 7.71875 -1.132812 7.582031 -0.890625 7.3125 -0.671875 C 7.050781 -0.453125 6.679688 -0.257812 6.203125 -0.09375 C 5.734375 0.0703125 5.25 0.15625 4.75 0.15625 Z M 4.75 0.15625 "/></g></g></g><g fill="#233349" fill-opacity="1"><g transform="translate(1116.342163, 207.500014)"><g><path d="M 0.515625 -1.25 C 0.410156 -1.382812 0.363281 -1.5625 0.375 -1.78125 C 0.382812 -2 0.515625 -2.191406 0.765625 -2.359375 C 0.921875 -2.453125 1.085938 -2.488281 1.265625 -2.46875 C 1.453125 -2.457031 1.628906 -2.367188 1.796875 -2.203125 C 2.085938 -1.910156 2.390625 -1.6875 2.703125 -1.53125 C 3.023438 -1.375 3.429688 -1.296875 3.921875 -1.296875 C 4.066406 -1.304688 4.226562 -1.328125 4.40625 -1.359375 C 4.59375 -1.390625 4.75 -1.46875 4.875 -1.59375 C 5.007812 -1.71875 5.078125 -1.910156 5.078125 -2.171875 C 5.078125 -2.390625 5.003906 -2.5625 4.859375 -2.6875 C 4.710938 -2.820312 4.515625 -2.9375 4.265625 -3.03125 C 4.023438 -3.125 3.753906 -3.207031 3.453125 -3.28125 C 3.140625 -3.375 2.820312 -3.472656 2.5 -3.578125 C 2.175781 -3.691406 1.878906 -3.835938 1.609375 -4.015625 C 1.335938 -4.191406 1.113281 -4.421875 0.9375 -4.703125 C 0.769531 -4.992188 0.6875 -5.363281 0.6875 -5.8125 C 0.6875 -6.3125 0.828125 -6.734375 1.109375 -7.078125 C 1.390625 -7.429688 1.75 -7.703125 2.1875 -7.890625 C 2.632812 -8.078125 3.101562 -8.171875 3.59375 -8.171875 C 3.90625 -8.171875 4.226562 -8.132812 4.5625 -8.0625 C 4.90625 -7.988281 5.234375 -7.867188 5.546875 -7.703125 C 5.859375 -7.535156 6.117188 -7.316406 6.328125 -7.046875 C 6.441406 -6.898438 6.507812 -6.71875 6.53125 -6.5 C 6.550781 -6.289062 6.453125 -6.101562 6.234375 -5.9375 C 6.085938 -5.820312 5.914062 -5.769531 5.71875 -5.78125 C 5.519531 -5.800781 5.351562 -5.867188 5.21875 -5.984375 C 5.050781 -6.203125 4.820312 -6.375 4.53125 -6.5 C 4.25 -6.632812 3.925781 -6.703125 3.5625 -6.703125 C 3.40625 -6.703125 3.238281 -6.679688 3.0625 -6.640625 C 2.894531 -6.609375 2.742188 -6.535156 2.609375 -6.421875 C 2.484375 -6.304688 2.421875 -6.125 2.421875 -5.875 C 2.421875 -5.644531 2.492188 -5.460938 2.640625 -5.328125 C 2.785156 -5.191406 2.984375 -5.082031 3.234375 -5 C 3.492188 -4.914062 3.769531 -4.832031 4.0625 -4.75 C 4.363281 -4.675781 4.664062 -4.582031 4.96875 -4.46875 C 5.28125 -4.363281 5.566406 -4.21875 5.828125 -4.03125 C 6.085938 -3.851562 6.296875 -3.617188 6.453125 -3.328125 C 6.617188 -3.046875 6.703125 -2.6875 6.703125 -2.25 C 6.703125 -1.738281 6.550781 -1.300781 6.25 -0.9375 C 5.957031 -0.582031 5.582031 -0.3125 5.125 -0.125 C 4.675781 0.0625 4.21875 0.15625 3.75 0.15625 C 3.15625 0.15625 2.5625 0.0507812 1.96875 -0.15625 C 1.382812 -0.363281 0.898438 -0.726562 0.515625 -1.25 Z M 0.515625 -1.25 "/></g></g></g><g fill="#233349" fill-opacity="1"><g transform="translate(1123.572225, 207.500014)"><g><path d="M 2.03125 0 C 1.769531 0 1.550781 -0.0859375 1.375 -0.265625 C 1.207031 -0.441406 1.125 -0.660156 1.125 -0.921875 L 1.125 -10.1875 C 1.125 -10.445312 1.207031 -10.660156 1.375 -10.828125 C 1.550781 -11.003906 1.769531 -11.09375 2.03125 -11.09375 C 2.289062 -11.09375 2.503906 -11.003906 2.671875 -10.828125 C 2.835938 -10.660156 2.921875 -10.445312 2.921875 -10.1875 L 2.921875 -0.921875 C 2.921875 -0.660156 2.835938 -0.441406 2.671875 -0.265625 C 2.503906 -0.0859375 2.289062 0 2.03125 0 Z M 6.796875 -8.03125 C 7.023438 -8.03125 7.222656 -7.929688 7.390625 -7.734375 C 7.566406 -7.546875 7.65625 -7.363281 7.65625 -7.1875 C 7.65625 -6.945312 7.535156 -6.722656 7.296875 -6.515625 L 2.78125 -2.359375 L 2.703125 -4.421875 L 6.140625 -7.734375 C 6.328125 -7.929688 6.546875 -8.03125 6.796875 -8.03125 Z M 7.015625 -0.015625 C 6.753906 -0.015625 6.535156 -0.113281 6.359375 -0.3125 L 3.578125 -3.25 L 4.953125 -4.515625 L 7.65625 -1.578125 C 7.84375 -1.378906 7.9375 -1.15625 7.9375 -0.90625 C 7.9375 -0.644531 7.832031 -0.429688 7.625 -0.265625 C 7.414062 -0.0976562 7.210938 -0.015625 7.015625 -0.015625 Z M 7.015625 -0.015625 "/></g></g></g><g fill="#233349" fill-opacity="1"><g transform="translate(1132.107295, 207.500014)"><g><path d="M 1.0625 -7.875 L 4.625 -7.875 C 4.863281 -7.875 5.0625 -7.789062 5.21875 -7.625 C 5.375 -7.46875 5.453125 -7.269531 5.453125 -7.03125 C 5.453125 -6.800781 5.375 -6.609375 5.21875 -6.453125 C 5.0625 -6.296875 4.863281 -6.21875 4.625 -6.21875 L 1.0625 -6.21875 C 0.820312 -6.21875 0.617188 -6.296875 0.453125 -6.453125 C 0.296875 -6.617188 0.21875 -6.820312 0.21875 -7.0625 C 0.21875 -7.289062 0.296875 -7.484375 0.453125 -7.640625 C 0.617188 -7.796875 0.820312 -7.875 1.0625 -7.875 Z M 2.671875 -9.75 C 2.929688 -9.75 3.144531 -9.660156 3.3125 -9.484375 C 3.476562 -9.304688 3.5625 -9.085938 3.5625 -8.828125 L 3.5625 -2.15625 C 3.5625 -2.019531 3.585938 -1.90625 3.640625 -1.8125 C 3.691406 -1.726562 3.765625 -1.664062 3.859375 -1.625 C 3.953125 -1.582031 4.054688 -1.5625 4.171875 -1.5625 C 4.285156 -1.5625 4.394531 -1.582031 4.5 -1.625 C 4.601562 -1.664062 4.71875 -1.6875 4.84375 -1.6875 C 4.988281 -1.6875 5.117188 -1.625 5.234375 -1.5 C 5.347656 -1.375 5.40625 -1.191406 5.40625 -0.953125 C 5.40625 -0.679688 5.25 -0.453125 4.9375 -0.265625 C 4.632812 -0.0859375 4.304688 0 3.953125 0 C 3.742188 0 3.507812 -0.015625 3.25 -0.046875 C 3 -0.0859375 2.757812 -0.175781 2.53125 -0.3125 C 2.3125 -0.445312 2.125 -0.648438 1.96875 -0.921875 C 1.820312 -1.203125 1.75 -1.585938 1.75 -2.078125 L 1.75 -8.828125 C 1.75 -9.085938 1.835938 -9.304688 2.015625 -9.484375 C 2.191406 -9.660156 2.410156 -9.75 2.671875 -9.75 Z M 2.671875 -9.75 "/></g></g></g><g fill="#233349" fill-opacity="1"><g transform="translate(1138.242347, 207.500014)"><g><path d="M 8.765625 -4 C 8.765625 -3.1875 8.582031 -2.46875 8.21875 -1.84375 C 7.851562 -1.21875 7.359375 -0.726562 6.734375 -0.375 C 6.117188 -0.0195312 5.4375 0.15625 4.6875 0.15625 C 3.925781 0.15625 3.234375 -0.0195312 2.609375 -0.375 C 1.992188 -0.726562 1.503906 -1.21875 1.140625 -1.84375 C 0.773438 -2.46875 0.59375 -3.1875 0.59375 -4 C 0.59375 -4.820312 0.773438 -5.546875 1.140625 -6.171875 C 1.503906 -6.796875 1.992188 -7.285156 2.609375 -7.640625 C 3.234375 -7.992188 3.925781 -8.171875 4.6875 -8.171875 C 5.4375 -8.171875 6.117188 -7.992188 6.734375 -7.640625 C 7.359375 -7.285156 7.851562 -6.796875 8.21875 -6.171875 C 8.582031 -5.546875 8.765625 -4.820312 8.765625 -4 Z M 6.953125 -4 C 6.953125 -4.507812 6.847656 -4.953125 6.640625 -5.328125 C 6.441406 -5.703125 6.171875 -5.992188 5.828125 -6.203125 C 5.484375 -6.421875 5.101562 -6.53125 4.6875 -6.53125 C 4.257812 -6.53125 3.875 -6.421875 3.53125 -6.203125 C 3.1875 -5.992188 2.910156 -5.703125 2.703125 -5.328125 C 2.503906 -4.953125 2.40625 -4.507812 2.40625 -4 C 2.40625 -3.5 2.503906 -3.0625 2.703125 -2.6875 C 2.910156 -2.3125 3.1875 -2.019531 3.53125 -1.8125 C 3.875 -1.601562 4.257812 -1.5 4.6875 -1.5 C 5.101562 -1.5 5.484375 -1.601562 5.828125 -1.8125 C 6.171875 -2.019531 6.441406 -2.3125 6.640625 -2.6875 C 6.847656 -3.0625 6.953125 -3.5 6.953125 -4 Z M 6.953125 -4 "/></g></g></g><g fill="#233349" fill-opacity="1"><g transform="translate(1147.602423, 207.500014)"><g><path d="M 5.125 -8.171875 C 5.832031 -8.171875 6.460938 -7.992188 7.015625 -7.640625 C 7.566406 -7.285156 8.003906 -6.796875 8.328125 -6.171875 C 8.648438 -5.554688 8.8125 -4.835938 8.8125 -4.015625 C 8.8125 -3.203125 8.648438 -2.484375 8.328125 -1.859375 C 8.003906 -1.234375 7.566406 -0.738281 7.015625 -0.375 C 6.472656 -0.0195312 5.863281 0.15625 5.1875 0.15625 C 4.789062 0.15625 4.414062 0.09375 4.0625 -0.03125 C 3.71875 -0.164062 3.410156 -0.332031 3.140625 -0.53125 C 2.878906 -0.738281 2.675781 -0.941406 2.53125 -1.140625 C 2.382812 -1.347656 2.3125 -1.523438 2.3125 -1.671875 L 2.78125 -1.859375 L 2.78125 2.078125 C 2.78125 2.335938 2.691406 2.554688 2.515625 2.734375 C 2.347656 2.910156 2.132812 3 1.875 3 C 1.613281 3 1.394531 2.910156 1.21875 2.734375 C 1.050781 2.566406 0.96875 2.347656 0.96875 2.078125 L 0.96875 -7.109375 C 0.96875 -7.367188 1.050781 -7.585938 1.21875 -7.765625 C 1.394531 -7.941406 1.613281 -8.03125 1.875 -8.03125 C 2.132812 -8.03125 2.347656 -7.941406 2.515625 -7.765625 C 2.691406 -7.585938 2.78125 -7.367188 2.78125 -7.109375 L 2.78125 -6.375 L 2.515625 -6.515625 C 2.515625 -6.640625 2.582031 -6.796875 2.71875 -6.984375 C 2.863281 -7.171875 3.054688 -7.351562 3.296875 -7.53125 C 3.535156 -7.71875 3.8125 -7.867188 4.125 -7.984375 C 4.445312 -8.109375 4.78125 -8.171875 5.125 -8.171875 Z M 4.90625 -6.53125 C 4.46875 -6.53125 4.082031 -6.414062 3.75 -6.1875 C 3.414062 -5.96875 3.15625 -5.671875 2.96875 -5.296875 C 2.789062 -4.921875 2.703125 -4.492188 2.703125 -4.015625 C 2.703125 -3.546875 2.789062 -3.117188 2.96875 -2.734375 C 3.15625 -2.347656 3.414062 -2.046875 3.75 -1.828125 C 4.082031 -1.609375 4.46875 -1.5 4.90625 -1.5 C 5.34375 -1.5 5.722656 -1.609375 6.046875 -1.828125 C 6.378906 -2.046875 6.632812 -2.347656 6.8125 -2.734375 C 7 -3.117188 7.09375 -3.546875 7.09375 -4.015625 C 7.09375 -4.492188 7 -4.921875 6.8125 -5.296875 C 6.632812 -5.671875 6.378906 -5.96875 6.046875 -6.1875 C 5.722656 -6.414062 5.34375 -6.53125 4.90625 -6.53125 Z M 4.90625 -6.53125 "/></g></g></g><g fill="#233349" fill-opacity="1"><g transform="translate(1157.022505, 207.500014)"><g/></g></g><g fill="#233349" fill-opacity="1"><g transform="translate(1161.222549, 207.500014)"><g><path d="M 2.0625 0 C 1.789062 0 1.566406 -0.0859375 1.390625 -0.265625 C 1.210938 -0.441406 1.125 -0.660156 1.125 -0.921875 L 1.125 -9.578125 C 1.125 -9.835938 1.210938 -10.054688 1.390625 -10.234375 C 1.566406 -10.410156 1.785156 -10.5 2.046875 -10.5 L 6.921875 -10.5 C 7.179688 -10.5 7.394531 -10.414062 7.5625 -10.25 C 7.738281 -10.082031 7.828125 -9.867188 7.828125 -9.609375 C 7.828125 -9.390625 7.738281 -9.195312 7.5625 -9.03125 C 7.394531 -8.863281 7.179688 -8.78125 6.921875 -8.78125 L 2.859375 -8.78125 L 3 -8.953125 L 3 -5.9375 L 2.890625 -6.140625 L 6.234375 -6.140625 C 6.492188 -6.140625 6.710938 -6.054688 6.890625 -5.890625 C 7.066406 -5.722656 7.15625 -5.507812 7.15625 -5.25 C 7.15625 -5.03125 7.066406 -4.832031 6.890625 -4.65625 C 6.710938 -4.488281 6.492188 -4.40625 6.234375 -4.40625 L 2.859375 -4.40625 L 3 -4.546875 L 3 -0.921875 C 3 -0.660156 2.90625 -0.441406 2.71875 -0.265625 C 2.53125 -0.0859375 2.3125 0 2.0625 0 Z M 2.0625 0 "/></g></g></g><g fill="#233349" fill-opacity="1"><g transform="translate(1169.65262, 207.500014)"><g><path d="M 1.875 0 C 1.613281 0 1.394531 -0.0859375 1.21875 -0.265625 C 1.050781 -0.441406 0.96875 -0.660156 0.96875 -0.921875 L 0.96875 -7.109375 C 0.96875 -7.367188 1.050781 -7.585938 1.21875 -7.765625 C 1.394531 -7.941406 1.613281 -8.03125 1.875 -8.03125 C 2.132812 -8.03125 2.347656 -7.941406 2.515625 -7.765625 C 2.691406 -7.585938 2.78125 -7.367188 2.78125 -7.109375 L 2.78125 -5.703125 L 2.671875 -6.703125 C 2.773438 -6.941406 2.914062 -7.15625 3.09375 -7.34375 C 3.269531 -7.53125 3.46875 -7.6875 3.6875 -7.8125 C 3.90625 -7.9375 4.140625 -8.023438 4.390625 -8.078125 C 4.640625 -8.140625 4.890625 -8.171875 5.140625 -8.171875 C 5.441406 -8.171875 5.691406 -8.085938 5.890625 -7.921875 C 6.097656 -7.753906 6.203125 -7.550781 6.203125 -7.3125 C 6.203125 -6.988281 6.117188 -6.753906 5.953125 -6.609375 C 5.785156 -6.460938 5.601562 -6.390625 5.40625 -6.390625 C 5.207031 -6.390625 5.03125 -6.421875 4.875 -6.484375 C 4.726562 -6.554688 4.550781 -6.59375 4.34375 -6.59375 C 4.164062 -6.59375 3.984375 -6.550781 3.796875 -6.46875 C 3.617188 -6.382812 3.453125 -6.253906 3.296875 -6.078125 C 3.140625 -5.898438 3.015625 -5.675781 2.921875 -5.40625 C 2.828125 -5.144531 2.78125 -4.832031 2.78125 -4.46875 L 2.78125 -0.921875 C 2.78125 -0.660156 2.691406 -0.441406 2.515625 -0.265625 C 2.347656 -0.0859375 2.132812 0 1.875 0 Z M 1.875 0 "/></g></g></g><g fill="#233349" fill-opacity="1"><g transform="translate(1176.162676, 207.500014)"><g><path d="M 2.671875 -0.921875 C 2.671875 -0.660156 2.582031 -0.441406 2.40625 -0.265625 C 2.238281 -0.0859375 2.023438 0 1.765625 0 C 1.503906 0 1.289062 -0.0859375 1.125 -0.265625 C 0.957031 -0.441406 0.875 -0.660156 0.875 -0.921875 L 0.875 -7.109375 C 0.875 -7.367188 0.957031 -7.585938 1.125 -7.765625 C 1.289062 -7.941406 1.503906 -8.03125 1.765625 -8.03125 C 2.023438 -8.03125 2.238281 -7.941406 2.40625 -7.765625 C 2.582031 -7.585938 2.671875 -7.367188 2.671875 -7.109375 Z M 1.765625 -9 C 1.421875 -9 1.175781 -9.050781 1.03125 -9.15625 C 0.894531 -9.269531 0.828125 -9.46875 0.828125 -9.75 L 0.828125 -10.03125 C 0.828125 -10.320312 0.90625 -10.519531 1.0625 -10.625 C 1.21875 -10.726562 1.453125 -10.78125 1.765625 -10.78125 C 2.117188 -10.78125 2.363281 -10.722656 2.5 -10.609375 C 2.644531 -10.503906 2.71875 -10.3125 2.71875 -10.03125 L 2.71875 -9.75 C 2.71875 -9.457031 2.640625 -9.257812 2.484375 -9.15625 C 2.335938 -9.050781 2.097656 -9 1.765625 -9 Z M 1.765625 -9 "/></g></g></g><g fill="#233349" fill-opacity="1"><g transform="translate(1179.7027, 207.500014)"><g><path d="M 4.75 0.15625 C 3.90625 0.15625 3.171875 -0.0195312 2.546875 -0.375 C 1.921875 -0.738281 1.4375 -1.222656 1.09375 -1.828125 C 0.757812 -2.441406 0.59375 -3.132812 0.59375 -3.90625 C 0.59375 -4.800781 0.773438 -5.566406 1.140625 -6.203125 C 1.503906 -6.835938 1.984375 -7.320312 2.578125 -7.65625 C 3.171875 -8 3.796875 -8.171875 4.453125 -8.171875 C 4.960938 -8.171875 5.441406 -8.066406 5.890625 -7.859375 C 6.347656 -7.648438 6.753906 -7.363281 7.109375 -7 C 7.460938 -6.632812 7.738281 -6.210938 7.9375 -5.734375 C 8.144531 -5.253906 8.25 -4.742188 8.25 -4.203125 C 8.238281 -3.960938 8.140625 -3.765625 7.953125 -3.609375 C 7.773438 -3.460938 7.566406 -3.390625 7.328125 -3.390625 L 1.609375 -3.390625 L 1.15625 -4.890625 L 6.65625 -4.890625 L 6.328125 -4.59375 L 6.328125 -5 C 6.304688 -5.289062 6.203125 -5.550781 6.015625 -5.78125 C 5.835938 -6.007812 5.609375 -6.191406 5.328125 -6.328125 C 5.054688 -6.460938 4.765625 -6.53125 4.453125 -6.53125 C 4.148438 -6.53125 3.867188 -6.488281 3.609375 -6.40625 C 3.347656 -6.320312 3.125 -6.1875 2.9375 -6 C 2.75 -5.8125 2.597656 -5.554688 2.484375 -5.234375 C 2.378906 -4.910156 2.328125 -4.503906 2.328125 -4.015625 C 2.328125 -3.472656 2.4375 -3.015625 2.65625 -2.640625 C 2.882812 -2.265625 3.175781 -1.976562 3.53125 -1.78125 C 3.882812 -1.59375 4.265625 -1.5 4.671875 -1.5 C 5.035156 -1.5 5.328125 -1.53125 5.546875 -1.59375 C 5.765625 -1.65625 5.941406 -1.726562 6.078125 -1.8125 C 6.210938 -1.894531 6.335938 -1.96875 6.453125 -2.03125 C 6.628906 -2.113281 6.796875 -2.15625 6.953125 -2.15625 C 7.179688 -2.15625 7.363281 -2.078125 7.5 -1.921875 C 7.644531 -1.773438 7.71875 -1.601562 7.71875 -1.40625 C 7.71875 -1.132812 7.582031 -0.890625 7.3125 -0.671875 C 7.050781 -0.453125 6.679688 -0.257812 6.203125 -0.09375 C 5.734375 0.0703125 5.25 0.15625 4.75 0.15625 Z M 4.75 0.15625 "/></g></g></g><g fill="#233349" fill-opacity="1"><g transform="translate(1188.55277, 207.500014)"><g><path d="M 5.265625 -8.171875 C 6.003906 -8.171875 6.566406 -8.015625 6.953125 -7.703125 C 7.335938 -7.398438 7.601562 -6.988281 7.75 -6.46875 C 7.894531 -5.957031 7.96875 -5.382812 7.96875 -4.75 L 7.96875 -0.921875 C 7.96875 -0.660156 7.878906 -0.441406 7.703125 -0.265625 C 7.535156 -0.0859375 7.320312 0 7.0625 0 C 6.800781 0 6.585938 -0.0859375 6.421875 -0.265625 C 6.253906 -0.441406 6.171875 -0.660156 6.171875 -0.921875 L 6.171875 -4.75 C 6.171875 -5.082031 6.125 -5.378906 6.03125 -5.640625 C 5.945312 -5.910156 5.796875 -6.125 5.578125 -6.28125 C 5.359375 -6.445312 5.046875 -6.53125 4.640625 -6.53125 C 4.234375 -6.53125 3.890625 -6.445312 3.609375 -6.28125 C 3.335938 -6.125 3.128906 -5.910156 2.984375 -5.640625 C 2.847656 -5.378906 2.78125 -5.082031 2.78125 -4.75 L 2.78125 -0.921875 C 2.78125 -0.660156 2.691406 -0.441406 2.515625 -0.265625 C 2.347656 -0.0859375 2.132812 0 1.875 0 C 1.613281 0 1.394531 -0.0859375 1.21875 -0.265625 C 1.050781 -0.441406 0.96875 -0.660156 0.96875 -0.921875 L 0.96875 -7.109375 C 0.96875 -7.367188 1.050781 -7.585938 1.21875 -7.765625 C 1.394531 -7.941406 1.613281 -8.03125 1.875 -8.03125 C 2.132812 -8.03125 2.347656 -7.941406 2.515625 -7.765625 C 2.691406 -7.585938 2.78125 -7.367188 2.78125 -7.109375 L 2.78125 -6.46875 L 2.546875 -6.515625 C 2.640625 -6.679688 2.769531 -6.859375 2.9375 -7.046875 C 3.101562 -7.242188 3.300781 -7.425781 3.53125 -7.59375 C 3.769531 -7.769531 4.03125 -7.910156 4.3125 -8.015625 C 4.601562 -8.117188 4.921875 -8.171875 5.265625 -8.171875 Z M 5.265625 -8.171875 "/></g></g></g><g fill="#233349" fill-opacity="1"><g transform="translate(1197.492848, 207.500014)"><g><path d="M 7.546875 -11.09375 C 7.804688 -11.09375 8.019531 -11.007812 8.1875 -10.84375 C 8.351562 -10.675781 8.4375 -10.457031 8.4375 -10.1875 L 8.4375 -0.921875 C 8.4375 -0.660156 8.351562 -0.441406 8.1875 -0.265625 C 8.019531 -0.0859375 7.804688 0 7.546875 0 C 7.285156 0 7.066406 -0.0859375 6.890625 -0.265625 C 6.722656 -0.441406 6.640625 -0.660156 6.640625 -0.921875 L 6.640625 -1.65625 L 6.96875 -1.515625 C 6.96875 -1.378906 6.898438 -1.21875 6.765625 -1.03125 C 6.628906 -0.851562 6.4375 -0.671875 6.1875 -0.484375 C 5.945312 -0.304688 5.664062 -0.15625 5.34375 -0.03125 C 5.019531 0.09375 4.671875 0.15625 4.296875 0.15625 C 3.597656 0.15625 2.96875 -0.0195312 2.40625 -0.375 C 1.851562 -0.738281 1.410156 -1.234375 1.078125 -1.859375 C 0.753906 -2.484375 0.59375 -3.195312 0.59375 -4 C 0.59375 -4.820312 0.753906 -5.546875 1.078125 -6.171875 C 1.410156 -6.796875 1.847656 -7.285156 2.390625 -7.640625 C 2.941406 -7.992188 3.554688 -8.171875 4.234375 -8.171875 C 4.660156 -8.171875 5.050781 -8.101562 5.40625 -7.96875 C 5.769531 -7.84375 6.082031 -7.679688 6.34375 -7.484375 C 6.613281 -7.285156 6.820312 -7.082031 6.96875 -6.875 C 7.113281 -6.664062 7.1875 -6.492188 7.1875 -6.359375 L 6.640625 -6.171875 L 6.640625 -10.1875 C 6.640625 -10.445312 6.722656 -10.660156 6.890625 -10.828125 C 7.066406 -11.003906 7.285156 -11.09375 7.546875 -11.09375 Z M 4.515625 -1.5 C 4.953125 -1.5 5.335938 -1.609375 5.671875 -1.828125 C 6.003906 -2.046875 6.257812 -2.34375 6.4375 -2.71875 C 6.625 -3.101562 6.71875 -3.53125 6.71875 -4 C 6.71875 -4.476562 6.625 -4.90625 6.4375 -5.28125 C 6.257812 -5.664062 6.003906 -5.96875 5.671875 -6.1875 C 5.335938 -6.414062 4.953125 -6.53125 4.515625 -6.53125 C 4.085938 -6.53125 3.707031 -6.414062 3.375 -6.1875 C 3.039062 -5.96875 2.78125 -5.664062 2.59375 -5.28125 C 2.414062 -4.90625 2.328125 -4.476562 2.328125 -4 C 2.328125 -3.53125 2.414062 -3.101562 2.59375 -2.71875 C 2.78125 -2.34375 3.039062 -2.046875 3.375 -1.828125 C 3.707031 -1.609375 4.085938 -1.5 4.515625 -1.5 Z M 4.515625 -1.5 "/></g></g></g><g fill="#233349" fill-opacity="1"><g transform="translate(1206.91293, 207.500014)"><g><path d="M 2.921875 -0.921875 C 2.921875 -0.660156 2.832031 -0.441406 2.65625 -0.265625 C 2.488281 -0.0859375 2.273438 0 2.015625 0 C 1.765625 0 1.550781 -0.0859375 1.375 -0.265625 C 1.207031 -0.441406 1.125 -0.660156 1.125 -0.921875 L 1.125 -10.1875 C 1.125 -10.445312 1.210938 -10.660156 1.390625 -10.828125 C 1.566406 -11.003906 1.785156 -11.09375 2.046875 -11.09375 C 2.304688 -11.09375 2.515625 -11.003906 2.671875 -10.828125 C 2.835938 -10.660156 2.921875 -10.445312 2.921875 -10.1875 Z M 2.921875 -0.921875 "/></g></g></g><g fill="#233349" fill-opacity="1"><g transform="translate(1210.96296, 207.500014)"><g><path d="M 6.9375 -8.03125 C 7.1875 -8.03125 7.394531 -7.941406 7.5625 -7.765625 C 7.738281 -7.585938 7.828125 -7.367188 7.828125 -7.109375 L 7.828125 -0.734375 C 7.828125 0.179688 7.65625 0.910156 7.3125 1.453125 C 6.96875 2.003906 6.503906 2.398438 5.921875 2.640625 C 5.347656 2.878906 4.695312 3 3.96875 3 C 3.65625 3 3.316406 2.972656 2.953125 2.921875 C 2.597656 2.867188 2.300781 2.796875 2.0625 2.703125 C 1.769531 2.566406 1.566406 2.398438 1.453125 2.203125 C 1.335938 2.015625 1.3125 1.8125 1.375 1.59375 C 1.46875 1.300781 1.613281 1.101562 1.8125 1 C 2.007812 0.894531 2.21875 0.878906 2.4375 0.953125 C 2.601562 1.003906 2.816406 1.082031 3.078125 1.1875 C 3.335938 1.289062 3.632812 1.34375 3.96875 1.34375 C 4.4375 1.34375 4.820312 1.28125 5.125 1.15625 C 5.425781 1.03125 5.65625 0.820312 5.8125 0.53125 C 5.96875 0.238281 6.046875 -0.160156 6.046875 -0.671875 L 6.046875 -1.6875 L 6.359375 -1.3125 C 6.191406 -0.988281 5.976562 -0.71875 5.71875 -0.5 C 5.46875 -0.289062 5.164062 -0.128906 4.8125 -0.015625 C 4.46875 0.0976562 4.066406 0.15625 3.609375 0.15625 C 3.078125 0.15625 2.613281 0.0351562 2.21875 -0.203125 C 1.832031 -0.453125 1.523438 -0.796875 1.296875 -1.234375 C 1.078125 -1.671875 0.96875 -2.171875 0.96875 -2.734375 L 0.96875 -7.109375 C 0.96875 -7.367188 1.050781 -7.585938 1.21875 -7.765625 C 1.394531 -7.941406 1.613281 -8.03125 1.875 -8.03125 C 2.132812 -8.03125 2.347656 -7.941406 2.515625 -7.765625 C 2.691406 -7.585938 2.78125 -7.367188 2.78125 -7.109375 L 2.78125 -3.265625 C 2.78125 -2.617188 2.921875 -2.160156 3.203125 -1.890625 C 3.484375 -1.628906 3.878906 -1.5 4.390625 -1.5 C 4.742188 -1.5 5.039062 -1.566406 5.28125 -1.703125 C 5.519531 -1.835938 5.703125 -2.035156 5.828125 -2.296875 C 5.960938 -2.566406 6.03125 -2.890625 6.03125 -3.265625 L 6.03125 -7.109375 C 6.03125 -7.367188 6.113281 -7.585938 6.28125 -7.765625 C 6.457031 -7.941406 6.675781 -8.03125 6.9375 -8.03125 Z M 6.9375 -8.03125 "/></g></g></g></svg>